<?xml version="1.0" encoding="UTF-8"?>
<svg version="1.1" xmlns="http://www.w3.org/2000/svg" width="500" height="500">
<path d="M0 0 C0.91007812 0.76699219 1.82015625 1.53398437 2.7578125 2.32421875 C7.64128976 6.53725252 11.91047881 11.01937691 16 16 C16.4424707 16.53012695 16.88494141 17.06025391 17.34082031 17.60644531 C24.33092998 25.99919085 30.61466286 34.46369305 36 44 C36.35658691 44.61504395 36.71317383 45.23008789 37.08056641 45.86376953 C51.79363699 71.36770072 59.93682827 100.69654056 60.3125 130.125 C60.33030518 131.02669922 60.34811035 131.92839844 60.36645508 132.85742188 C60.3605688 137.65699978 60.35102779 141.26095847 57 145 C52.75806062 147.49912679 49.65303782 148.37560019 44.74992371 148.38031673 C43.50855557 148.38875668 42.26718744 148.39719662 40.9882021 148.40589231 C39.61867976 148.40009764 38.24915861 148.39401664 36.87963867 148.38768005 C35.418553 148.39185401 33.95747057 148.39733187 32.49639416 148.40399987 C28.48531217 148.41846497 24.47443547 148.41420648 20.46334219 148.40683305 C16.13607442 148.40210637 11.80885138 148.41460674 7.4815979 148.42485046 C-0.99396479 148.44205303 -9.4694534 148.44287553 -17.94502902 148.43763756 C-24.83271458 148.4335977 -31.72037823 148.43503723 -38.60806274 148.44038582 C-39.58799535 148.44113424 -40.56792795 148.44188266 -41.57755548 148.44265376 C-43.56820989 148.44418522 -45.5588643 148.44572357 -47.5495187 148.44726873 C-66.22010241 148.4609988 -84.89064421 148.4555523 -103.56122696 148.44408352 C-120.64786319 148.4341484 -137.73439118 148.44709574 -154.82101071 148.47101771 C-172.3612934 148.49539006 -189.90152563 148.50502131 -207.44182491 148.49836498 C-217.29113348 148.4948689 -227.14035876 148.4971306 -236.98965454 148.51461601 C-245.3732103 148.52931459 -253.75662411 148.53000408 -262.14017701 148.5125451 C-266.4184139 148.50401376 -270.69639696 148.50193743 -274.97462082 148.51719666 C-278.890357 148.53099028 -282.80562062 148.52634985 -286.72132909 148.50695742 C-288.13847317 148.50318068 -289.55565463 148.50616743 -290.97276556 148.51656907 C-304.10233505 148.60609435 -304.10233505 148.60609435 -309 144 C-312.97005423 139.48437806 -312.49753566 134.33744061 -312.4375 128.625 C-312.42992676 127.61203857 -312.42235352 126.59907715 -312.41455078 125.55541992 C-311.91144035 101.78253382 -305.40206254 78.30020738 -295 57 C-294.66097656 56.30277832 -294.32195312 55.60555664 -293.97265625 54.88720703 C-286.72889126 40.18408881 -277.61676496 27.46650985 -267 15 C-266.32066406 14.19691406 -265.64132812 13.39382812 -264.94140625 12.56640625 C-260.62433094 7.57610282 -256.05458592 3.22844094 -251 -1 C-250.17371094 -1.73734375 -249.34742188 -2.4746875 -248.49609375 -3.234375 C-180.80065385 -62.36196367 -71.40764962 -60.0578094 0 0 Z M-213 75 C-214.4472889 79.34186671 -214.52187856 83.46255585 -214 88 C-212.20895728 91.18407594 -210.79514401 92.52721167 -207.6875 94.375 C-202.91133764 95.48573543 -199.33582453 94.83117971 -195.1875 92.25 C-192.33783528 89.31891629 -191.07658969 87.21659571 -190.93359375 83.078125 C-191.1867398 78.99710378 -191.74982204 77.30149652 -194.4375 74.0625 C-198.35775145 70.90717566 -200.82067703 70.66342442 -205.73828125 70.7109375 C-209.08634301 71.13884177 -210.76066981 72.55073261 -213 75 Z M-59 77 C-60.44696852 80.82626211 -60.45852729 83.93814734 -58.8125 87.75 C-54.53106563 93.17751586 -54.53106563 93.17751586 -48.25 95.3125 C-44.11403855 94.9148114 -42.19086263 93.62359816 -39 91 C-36.62697833 88.07327328 -36.04033374 86.31690796 -35.5625 82.5625 C-36.08105728 78.33996212 -37.33350832 76.2759755 -40 73 C-46.87653707 68.41564195 -54.27629601 70.3896095 -59 77 Z " fill="#1D2B72" transform="translate(373,225)"/>
<path d="M0 0 C2.88064603 1.91457571 4.41866921 3.9468591 6 7 C7.10641869 12.54532956 6.42035302 16.98668582 3.4375 21.78125 C2.31652863 23.37198066 1.1696365 24.94470217 0 26.5 C-0.88933228 27.73447876 -0.88933228 27.73447876 -1.79663086 28.99389648 C-3.5059498 31.34924257 -5.24646603 33.67746962 -7 36 C-7.44102051 36.59570801 -7.88204102 37.19141602 -8.33642578 37.80517578 C-15.492663 47.45158003 -15.492663 47.45158003 -21.1484375 48.3359375 C-26.5930041 48.43145621 -29.74878427 47.73277479 -34 44 C-36.36255924 40.99310642 -36.29745801 37.86686456 -36.25927734 34.11328125 C-35.82755459 30.59445625 -34.1126125 28.25669425 -32.125 25.375 C-31.72442383 24.7867041 -31.32384766 24.1984082 -30.91113281 23.59228516 C-30.0612475 22.35229394 -29.20231385 21.11846139 -28.33496094 19.890625 C-26.98717478 17.98183642 -25.66805696 16.05546934 -24.3515625 14.125 C-23.48609401 12.87380918 -22.61895502 11.62377193 -21.75 10.375 C-21.15082764 9.50560791 -21.15082764 9.50560791 -20.53955078 8.61865234 C-15.0713377 0.93781519 -9.333408 -2.7778 0 0 Z " fill="#1D2B72" transform="translate(371,138)"/>
<path d="M0 0 C3.59253841 2.84354055 6.26962555 6.35487578 9 10 C9.53802246 10.71124023 10.07604492 11.42248047 10.63037109 12.15527344 C24.04750035 30.00747822 24.04750035 30.00747822 23.9375 36.9375 C23.21965641 41.50402308 21.27491813 43.80305611 18 47 C14.32806676 48.22397775 10.80297686 48.72596231 7 48 C2.52432807 45.48498748 -0.27244448 42.77312124 -3.25 38.625 C-4.00796875 37.57828125 -4.7659375 36.5315625 -5.546875 35.453125 C-6.13952148 34.6187793 -6.13952148 34.6187793 -6.74414062 33.76757812 C-8.07462211 31.89497198 -9.41909938 30.03297248 -10.765625 28.171875 C-19.78281702 15.66569878 -19.78281702 15.66569878 -19 8 C-17.41888193 3.90769441 -14.95490388 1.67369103 -11.015625 -0.3125 C-7.02380925 -1.67404956 -3.90826389 -1.62292314 0 0 Z " fill="#1D2B72" transform="translate(136,138)"/>
</svg>
