<svg width="266" height="77" viewBox="0 0 266 77" fill="none" xmlns="http://www.w3.org/2000/svg">
<g filter="url(#filter0_d_2484_9561)">
<rect x="4" width="258" height="69" rx="10" fill="#1B1636"/>
</g>
<path d="M65.176 20L70.2 8.72H71.576L76.616 20H74.92L73.544 16.8L74.296 17.248H67.48L68.216 16.8L66.856 20H65.176ZM70.872 10.56L68.456 16.288L68.056 15.904H73.704L73.336 16.288L70.904 10.56H70.872ZM79.7678 20L76.4078 12.192H78.1518L80.7598 18.672H80.3118L82.9838 12.192H84.6318L81.2238 20H79.7678ZM88.132 20.144C87.588 20.144 87.0973 20.0373 86.66 19.824C86.2333 19.6107 85.8973 19.3227 85.652 18.96C85.4067 18.5973 85.284 18.1867 85.284 17.728C85.284 17.152 85.428 16.6987 85.716 16.368C86.0147 16.0267 86.5 15.7867 87.172 15.648C87.8547 15.4987 88.772 15.424 89.924 15.424H90.676V16.416H89.94C89.364 16.416 88.8787 16.4373 88.484 16.48C88.0893 16.5227 87.7747 16.592 87.54 16.688C87.3053 16.7733 87.1347 16.896 87.028 17.056C86.932 17.216 86.884 17.408 86.884 17.632C86.884 18.0373 87.0227 18.368 87.3 18.624C87.5773 18.8693 87.9613 18.992 88.452 18.992C88.8467 18.992 89.1933 18.9013 89.492 18.72C89.7907 18.528 90.0253 18.272 90.196 17.952C90.3773 17.632 90.468 17.264 90.468 16.848V15.008C90.468 14.4 90.34 13.9627 90.084 13.696C89.828 13.4293 89.4067 13.296 88.82 13.296C88.372 13.296 87.924 13.3653 87.476 13.504C87.028 13.632 86.5693 13.84 86.1 14.128L85.604 12.992C85.8813 12.8 86.2013 12.6347 86.564 12.496C86.9267 12.3573 87.3053 12.2507 87.7 12.176C88.1053 12.0907 88.4947 12.048 88.868 12.048C89.5827 12.048 90.1693 12.16 90.628 12.384C91.0973 12.608 91.444 12.9493 91.668 13.408C91.892 13.8667 92.004 14.4587 92.004 15.184V20H90.484V18.256H90.628C90.5427 18.6507 90.3827 18.992 90.148 19.28C89.924 19.5573 89.6413 19.7707 89.3 19.92C88.9587 20.0693 88.5693 20.144 88.132 20.144ZM94.0858 10.384V8.704H95.9738V10.384H94.0858ZM94.2298 20V12.192H95.8458V20H94.2298ZM100.664 20.144C99.811 20.144 99.171 19.904 98.7444 19.424C98.3284 18.9333 98.1204 18.2293 98.1204 17.312V8.72H99.7364V17.216C99.7364 17.5573 99.7844 17.8507 99.8804 18.096C99.9764 18.3307 100.12 18.5067 100.312 18.624C100.504 18.7413 100.744 18.8 101.032 18.8C101.16 18.8 101.283 18.7947 101.4 18.784C101.518 18.7733 101.63 18.752 101.736 18.72L101.704 20.016C101.523 20.0587 101.347 20.0907 101.176 20.112C101.006 20.1333 100.835 20.144 100.664 20.144ZM105.507 20.144C104.963 20.144 104.472 20.0373 104.035 19.824C103.608 19.6107 103.272 19.3227 103.027 18.96C102.782 18.5973 102.659 18.1867 102.659 17.728C102.659 17.152 102.803 16.6987 103.091 16.368C103.39 16.0267 103.875 15.7867 104.547 15.648C105.23 15.4987 106.147 15.424 107.299 15.424H108.051V16.416H107.315C106.739 16.416 106.254 16.4373 105.859 16.48C105.464 16.5227 105.15 16.592 104.915 16.688C104.68 16.7733 104.51 16.896 104.403 17.056C104.307 17.216 104.259 17.408 104.259 17.632C104.259 18.0373 104.398 18.368 104.675 18.624C104.952 18.8693 105.336 18.992 105.827 18.992C106.222 18.992 106.568 18.9013 106.867 18.72C107.166 18.528 107.4 18.272 107.571 17.952C107.752 17.632 107.843 17.264 107.843 16.848V15.008C107.843 14.4 107.715 13.9627 107.459 13.696C107.203 13.4293 106.782 13.296 106.195 13.296C105.747 13.296 105.299 13.3653 104.851 13.504C104.403 13.632 103.944 13.84 103.475 14.128L102.979 12.992C103.256 12.8 103.576 12.6347 103.939 12.496C104.302 12.3573 104.68 12.2507 105.075 12.176C105.48 12.0907 105.87 12.048 106.243 12.048C106.958 12.048 107.544 12.16 108.003 12.384C108.472 12.608 108.819 12.9493 109.043 13.408C109.267 13.8667 109.379 14.4587 109.379 15.184V20H107.859V18.256H108.003C107.918 18.6507 107.758 18.992 107.523 19.28C107.299 19.5573 107.016 19.7707 106.675 19.92C106.334 20.0693 105.944 20.144 105.507 20.144ZM115.797 20.144C115.114 20.144 114.522 19.9733 114.021 19.632C113.519 19.28 113.183 18.816 113.013 18.24H113.189V20H111.605V8.72H113.221V13.904H113.029C113.199 13.3387 113.535 12.8907 114.037 12.56C114.538 12.2187 115.125 12.048 115.797 12.048C116.501 12.048 117.109 12.2133 117.621 12.544C118.133 12.8747 118.527 13.3387 118.805 13.936C119.093 14.5333 119.237 15.2533 119.237 16.096C119.237 16.9173 119.093 17.6373 118.805 18.256C118.527 18.864 118.127 19.3333 117.605 19.664C117.093 19.984 116.49 20.144 115.797 20.144ZM115.397 18.896C116.069 18.896 116.602 18.656 116.997 18.176C117.402 17.696 117.605 17.0027 117.605 16.096C117.605 15.1787 117.402 14.4853 116.997 14.016C116.602 13.5467 116.069 13.312 115.397 13.312C114.735 13.312 114.202 13.5467 113.797 14.016C113.391 14.4853 113.189 15.1787 113.189 16.096C113.189 17.0027 113.391 17.696 113.797 18.176C114.202 18.656 114.735 18.896 115.397 18.896ZM123.602 20.144C122.749 20.144 122.109 19.904 121.682 19.424C121.266 18.9333 121.058 18.2293 121.058 17.312V8.72H122.674V17.216C122.674 17.5573 122.722 17.8507 122.818 18.096C122.914 18.3307 123.058 18.5067 123.25 18.624C123.442 18.7413 123.682 18.8 123.97 18.8C124.098 18.8 124.221 18.7947 124.338 18.784C124.455 18.7733 124.567 18.752 124.674 18.72L124.642 20.016C124.461 20.0587 124.285 20.0907 124.114 20.112C123.943 20.1333 123.773 20.144 123.602 20.144ZM129.534 20.144C128.681 20.144 127.945 19.984 127.326 19.664C126.718 19.3333 126.244 18.8693 125.902 18.272C125.572 17.664 125.406 16.944 125.406 16.112C125.406 15.3013 125.572 14.592 125.902 13.984C126.233 13.376 126.686 12.9013 127.262 12.56C127.838 12.2187 128.494 12.048 129.23 12.048C129.956 12.048 130.574 12.208 131.086 12.528C131.609 12.8373 132.009 13.28 132.286 13.856C132.564 14.432 132.702 15.12 132.702 15.92V16.464H126.686V15.472H131.614L131.342 15.696C131.342 14.896 131.166 14.2773 130.814 13.84C130.462 13.4027 129.956 13.184 129.294 13.184C128.793 13.184 128.366 13.3013 128.014 13.536C127.673 13.7707 127.412 14.096 127.23 14.512C127.049 14.928 126.958 15.4133 126.958 15.968V16.064C126.958 16.6827 127.054 17.2053 127.246 17.632C127.449 18.048 127.742 18.3627 128.126 18.576C128.51 18.7893 128.985 18.896 129.55 18.896C129.998 18.896 130.436 18.8267 130.862 18.688C131.3 18.5387 131.71 18.3093 132.094 18L132.574 19.12C132.222 19.44 131.769 19.6907 131.214 19.872C130.66 20.0533 130.1 20.144 129.534 20.144ZM138.523 10.384V8.704H140.411V10.384H138.523ZM138.667 20V12.192H140.283V20H138.667ZM142.558 20V12.192H144.126V13.856H143.95C144.185 13.2587 144.553 12.8107 145.054 12.512C145.555 12.2027 146.131 12.048 146.782 12.048C147.401 12.048 147.913 12.1653 148.318 12.4C148.734 12.624 149.043 12.9707 149.246 13.44C149.449 13.8987 149.55 14.48 149.55 15.184V20H147.934V15.28C147.934 14.832 147.875 14.4693 147.758 14.192C147.641 13.904 147.465 13.6907 147.23 13.552C146.995 13.4133 146.691 13.344 146.318 13.344C145.891 13.344 145.513 13.4347 145.182 13.616C144.862 13.7973 144.611 14.0587 144.43 14.4C144.259 14.7413 144.174 15.136 144.174 15.584V20H142.558ZM159.308 20.144C158.337 20.144 157.606 19.8933 157.116 19.392C156.636 18.8907 156.396 18.1653 156.396 17.216V13.44H154.876V12.192H156.396V9.84H158.012V12.192H160.428V13.44H158.012V17.088C158.012 17.6533 158.129 18.08 158.364 18.368C158.609 18.656 159.004 18.8 159.548 18.8C159.708 18.8 159.868 18.7787 160.028 18.736C160.198 18.6933 160.364 18.6507 160.524 18.608L160.78 19.824C160.62 19.92 160.396 19.9947 160.108 20.048C159.83 20.112 159.564 20.144 159.308 20.144ZM161.824 20V8.72H163.44V13.856H163.216C163.45 13.2587 163.818 12.8107 164.32 12.512C164.821 12.2027 165.397 12.048 166.048 12.048C166.666 12.048 167.178 12.1653 167.584 12.4C168 12.624 168.309 12.9707 168.512 13.44C168.714 13.8987 168.816 14.48 168.816 15.184V20H167.2V15.28C167.2 14.832 167.141 14.4693 167.024 14.192C166.906 13.904 166.73 13.6907 166.496 13.552C166.261 13.4133 165.957 13.344 165.584 13.344C165.157 13.344 164.778 13.4347 164.448 13.616C164.128 13.7973 163.877 14.0587 163.696 14.4C163.525 14.7413 163.44 15.136 163.44 15.584V20H161.824ZM174.706 20.144C173.853 20.144 173.117 19.984 172.498 19.664C171.89 19.3333 171.416 18.8693 171.074 18.272C170.744 17.664 170.578 16.944 170.578 16.112C170.578 15.3013 170.744 14.592 171.074 13.984C171.405 13.376 171.858 12.9013 172.434 12.56C173.01 12.2187 173.666 12.048 174.402 12.048C175.128 12.048 175.746 12.208 176.258 12.528C176.781 12.8373 177.181 13.28 177.458 13.856C177.736 14.432 177.874 15.12 177.874 15.92V16.464H171.858V15.472H176.786L176.514 15.696C176.514 14.896 176.338 14.2773 175.986 13.84C175.634 13.4027 175.128 13.184 174.466 13.184C173.965 13.184 173.538 13.3013 173.186 13.536C172.845 13.7707 172.584 14.096 172.402 14.512C172.221 14.928 172.13 15.4133 172.13 15.968V16.064C172.13 16.6827 172.226 17.2053 172.418 17.632C172.621 18.048 172.914 18.3627 173.298 18.576C173.682 18.7893 174.157 18.896 174.722 18.896C175.17 18.896 175.608 18.8267 176.034 18.688C176.472 18.5387 176.882 18.3093 177.266 18L177.746 19.12C177.394 19.44 176.941 19.6907 176.386 19.872C175.832 20.0533 175.272 20.144 174.706 20.144Z" fill="#938FAA"/>
<path d="M66.968 52V35.08H74.024C75.784 35.08 77.144 35.472 78.104 36.256C79.08 37.024 79.568 38.104 79.568 39.496C79.568 40.52 79.264 41.384 78.656 42.088C78.048 42.792 77.224 43.264 76.184 43.504V43.144C76.968 43.256 77.64 43.496 78.2 43.864C78.776 44.216 79.216 44.688 79.52 45.28C79.824 45.856 79.976 46.536 79.976 47.32C79.976 48.312 79.752 49.16 79.304 49.864C78.856 50.568 78.208 51.104 77.36 51.472C76.512 51.824 75.496 52 74.312 52H66.968ZM69.368 50.08H74.024C74.504 50.08 74.928 50.048 75.296 49.984C75.68 49.904 76.008 49.792 76.28 49.648C76.568 49.488 76.808 49.296 77 49.072C77.192 48.832 77.328 48.56 77.408 48.256C77.504 47.952 77.552 47.608 77.552 47.224C77.552 46.84 77.504 46.496 77.408 46.192C77.328 45.888 77.192 45.624 77 45.4C76.808 45.176 76.568 44.992 76.28 44.848C76.008 44.688 75.68 44.576 75.296 44.512C74.928 44.432 74.504 44.392 74.024 44.392H69.368V50.08ZM69.368 42.472H73.64C74.792 42.472 75.664 42.24 76.256 41.776C76.848 41.312 77.144 40.632 77.144 39.736C77.144 38.84 76.848 38.16 76.256 37.696C75.664 37.232 74.792 37 73.64 37H69.368V42.472ZM83.0634 52V40.288H85.4154V43.096H85.1754C85.4314 42.136 85.8874 41.408 86.5434 40.912C87.2154 40.416 88.1034 40.128 89.2074 40.048L89.9994 40L90.1674 42.064L88.7034 42.208C87.6634 42.304 86.8714 42.632 86.3274 43.192C85.7834 43.752 85.5114 44.52 85.5114 45.496V52H83.0634ZM95.6433 52.216C94.8273 52.216 94.0913 52.056 93.4353 51.736C92.7953 51.416 92.2913 50.984 91.9233 50.44C91.5553 49.896 91.3713 49.28 91.3713 48.592C91.3713 47.728 91.5873 47.048 92.0193 46.552C92.4673 46.04 93.1953 45.68 94.2033 45.472C95.2273 45.248 96.6033 45.136 98.3313 45.136H99.4593V46.624H98.3553C97.4913 46.624 96.7633 46.656 96.1713 46.72C95.5793 46.784 95.1073 46.888 94.7553 47.032C94.4033 47.16 94.1473 47.344 93.9873 47.584C93.8433 47.824 93.7713 48.112 93.7713 48.448C93.7713 49.056 93.9793 49.552 94.3953 49.936C94.8113 50.304 95.3873 50.488 96.1233 50.488C96.7153 50.488 97.2353 50.352 97.6833 50.08C98.1313 49.792 98.4833 49.408 98.7393 48.928C99.0113 48.448 99.1473 47.896 99.1473 47.272V44.512C99.1473 43.6 98.9553 42.944 98.5713 42.544C98.1873 42.144 97.5553 41.944 96.6753 41.944C96.0033 41.944 95.3313 42.048 94.6593 42.256C93.9873 42.448 93.2993 42.76 92.5953 43.192L91.8513 41.488C92.2673 41.2 92.7473 40.952 93.2913 40.744C93.8353 40.536 94.4033 40.376 94.9953 40.264C95.6033 40.136 96.1873 40.072 96.7473 40.072C97.8193 40.072 98.6993 40.24 99.3873 40.576C100.091 40.912 100.611 41.424 100.947 42.112C101.283 42.8 101.451 43.688 101.451 44.776V52H99.1713V49.384H99.3873C99.2593 49.976 99.0193 50.488 98.6673 50.92C98.3313 51.336 97.9073 51.656 97.3953 51.88C96.8833 52.104 96.2993 52.216 95.6433 52.216ZM108.105 52L103.065 40.288H105.681L109.593 50.008H108.921L112.929 40.288H115.401L110.289 52H108.105ZM122.427 52.216C121.147 52.216 120.043 51.976 119.115 51.496C118.203 51 117.491 50.304 116.979 49.408C116.483 48.496 116.235 47.416 116.235 46.168C116.235 44.952 116.483 43.888 116.979 42.976C117.475 42.064 118.155 41.352 119.019 40.84C119.883 40.328 120.867 40.072 121.971 40.072C123.059 40.072 123.987 40.312 124.755 40.792C125.539 41.256 126.139 41.92 126.555 42.784C126.971 43.648 127.179 44.68 127.179 45.88V46.696H118.155V45.208H125.547L125.139 45.544C125.139 44.344 124.875 43.416 124.347 42.76C123.819 42.104 123.059 41.776 122.067 41.776C121.315 41.776 120.675 41.952 120.147 42.304C119.635 42.656 119.243 43.144 118.971 43.768C118.699 44.392 118.563 45.12 118.563 45.952V46.096C118.563 47.024 118.707 47.808 118.995 48.448C119.299 49.072 119.739 49.544 120.315 49.864C120.891 50.184 121.603 50.344 122.451 50.344C123.123 50.344 123.779 50.24 124.419 50.032C125.075 49.808 125.691 49.464 126.267 49L126.987 50.68C126.459 51.16 125.779 51.536 124.947 51.808C124.115 52.08 123.275 52.216 122.427 52.216ZM136.39 52V35.08H147.334V37.096H138.79V42.4H146.83V44.416H138.79V49.984H147.334V52H136.39ZM148.699 52L154.051 45.352V46.552L149.011 40.288H151.843L155.419 44.848H154.555L158.131 40.288H160.963L155.923 46.504V45.424L161.275 52H158.395L154.555 47.152H155.371L151.555 52H148.699ZM168.071 52.216C166.615 52.216 165.519 51.84 164.783 51.088C164.063 50.336 163.703 49.248 163.703 47.824V42.16H161.423V40.288H163.703V36.76H166.127V40.288H169.751V42.16H166.127V47.632C166.127 48.48 166.303 49.12 166.655 49.552C167.023 49.984 167.615 50.2 168.431 50.2C168.671 50.2 168.911 50.168 169.151 50.104C169.407 50.04 169.655 49.976 169.895 49.912L170.279 51.736C170.039 51.88 169.703 51.992 169.271 52.072C168.855 52.168 168.455 52.216 168.071 52.216ZM177.223 52.216C175.943 52.216 174.839 51.976 173.911 51.496C172.999 51 172.287 50.304 171.775 49.408C171.279 48.496 171.031 47.416 171.031 46.168C171.031 44.952 171.279 43.888 171.775 42.976C172.271 42.064 172.951 41.352 173.815 40.84C174.679 40.328 175.663 40.072 176.767 40.072C177.855 40.072 178.783 40.312 179.551 40.792C180.335 41.256 180.935 41.92 181.351 42.784C181.767 43.648 181.975 44.68 181.975 45.88V46.696H172.951V45.208H180.343L179.935 45.544C179.935 44.344 179.671 43.416 179.143 42.76C178.615 42.104 177.855 41.776 176.863 41.776C176.111 41.776 175.471 41.952 174.943 42.304C174.431 42.656 174.039 43.144 173.767 43.768C173.495 44.392 173.359 45.12 173.359 45.952V46.096C173.359 47.024 173.503 47.808 173.791 48.448C174.095 49.072 174.535 49.544 175.111 49.864C175.687 50.184 176.399 50.344 177.247 50.344C177.919 50.344 178.575 50.24 179.215 50.032C179.871 49.808 180.487 49.464 181.063 49L181.783 50.68C181.255 51.16 180.575 51.536 179.743 51.808C178.911 52.08 178.071 52.216 177.223 52.216ZM184.618 52V40.288H186.97V42.784H186.706C187.058 41.888 187.61 41.216 188.362 40.768C189.114 40.304 189.978 40.072 190.954 40.072C191.882 40.072 192.65 40.248 193.258 40.6C193.882 40.936 194.346 41.456 194.65 42.16C194.954 42.848 195.106 43.72 195.106 44.776V52H192.682V44.92C192.682 44.248 192.594 43.704 192.418 43.288C192.242 42.856 191.978 42.536 191.626 42.328C191.274 42.12 190.818 42.016 190.258 42.016C189.618 42.016 189.05 42.152 188.554 42.424C188.074 42.696 187.698 43.088 187.426 43.6C187.17 44.112 187.042 44.704 187.042 45.376V52H184.618ZM202.55 52.216C201.926 52.216 201.318 52.16 200.726 52.048C200.134 51.936 199.59 51.776 199.094 51.568C198.598 51.36 198.158 51.104 197.774 50.8L198.47 49.168C198.87 49.44 199.294 49.68 199.742 49.888C200.19 50.08 200.654 50.224 201.134 50.32C201.63 50.416 202.11 50.464 202.574 50.464C203.422 50.464 204.062 50.312 204.494 50.008C204.926 49.704 205.142 49.296 205.142 48.784C205.142 48.368 204.998 48.048 204.71 47.824C204.422 47.584 203.99 47.4 203.414 47.272L201.134 46.816C200.142 46.608 199.39 46.24 198.878 45.712C198.366 45.184 198.11 44.512 198.11 43.696C198.11 42.96 198.31 42.32 198.71 41.776C199.11 41.232 199.67 40.816 200.39 40.528C201.11 40.224 201.942 40.072 202.886 40.072C203.43 40.072 203.958 40.128 204.47 40.24C204.982 40.352 205.462 40.512 205.91 40.72C206.374 40.928 206.766 41.192 207.086 41.512L206.39 43.144C206.086 42.872 205.734 42.64 205.334 42.448C204.95 42.256 204.55 42.112 204.134 42.016C203.718 41.904 203.302 41.848 202.886 41.848C202.038 41.848 201.398 42.008 200.966 42.328C200.55 42.632 200.342 43.048 200.342 43.576C200.342 43.976 200.47 44.304 200.726 44.56C200.982 44.816 201.382 45 201.926 45.112L204.206 45.568C205.246 45.776 206.03 46.128 206.558 46.624C207.102 47.12 207.374 47.792 207.374 48.64C207.374 49.376 207.174 50.016 206.774 50.56C206.374 51.104 205.806 51.52 205.07 51.808C204.35 52.08 203.51 52.216 202.55 52.216ZM209.855 37.576V35.056H212.687V37.576H209.855ZM210.071 52V40.288H212.495V52H210.071ZM220.995 52.216C219.811 52.216 218.787 51.968 217.923 51.472C217.075 50.976 216.411 50.272 215.931 49.36C215.451 48.448 215.211 47.376 215.211 46.144C215.211 44.896 215.451 43.824 215.931 42.928C216.411 42.016 217.075 41.312 217.923 40.816C218.787 40.32 219.811 40.072 220.995 40.072C222.163 40.072 223.171 40.32 224.019 40.816C224.883 41.312 225.555 42.016 226.035 42.928C226.515 43.84 226.755 44.912 226.755 46.144C226.755 47.376 226.515 48.448 226.035 49.36C225.555 50.272 224.883 50.976 224.019 51.472C223.171 51.968 222.163 52.216 220.995 52.216ZM220.971 50.344C221.979 50.344 222.787 49.984 223.395 49.264C224.003 48.544 224.307 47.504 224.307 46.144C224.307 44.768 224.003 43.728 223.395 43.024C222.787 42.32 221.979 41.968 220.971 41.968C219.979 41.968 219.179 42.32 218.571 43.024C217.963 43.728 217.659 44.768 217.659 46.144C217.659 47.504 217.963 48.544 218.571 49.264C219.179 49.984 219.979 50.344 220.971 50.344ZM229.477 52V40.288H231.829V42.784H231.565C231.917 41.888 232.469 41.216 233.221 40.768C233.973 40.304 234.837 40.072 235.813 40.072C236.741 40.072 237.509 40.248 238.117 40.6C238.741 40.936 239.205 41.456 239.509 42.16C239.813 42.848 239.965 43.72 239.965 44.776V52H237.541V44.92C237.541 44.248 237.453 43.704 237.277 43.288C237.101 42.856 236.837 42.536 236.485 42.328C236.133 42.12 235.677 42.016 235.117 42.016C234.477 42.016 233.909 42.152 233.413 42.424C232.933 42.696 232.557 43.088 232.285 43.6C232.029 44.112 231.901 44.704 231.901 45.376V52H229.477ZM247.41 52.216C246.786 52.216 246.178 52.16 245.586 52.048C244.994 51.936 244.45 51.776 243.954 51.568C243.458 51.36 243.018 51.104 242.634 50.8L243.33 49.168C243.73 49.44 244.154 49.68 244.602 49.888C245.05 50.08 245.514 50.224 245.994 50.32C246.49 50.416 246.97 50.464 247.434 50.464C248.282 50.464 248.922 50.312 249.354 50.008C249.786 49.704 250.002 49.296 250.002 48.784C250.002 48.368 249.858 48.048 249.57 47.824C249.282 47.584 248.85 47.4 248.274 47.272L245.994 46.816C245.002 46.608 244.25 46.24 243.738 45.712C243.226 45.184 242.97 44.512 242.97 43.696C242.97 42.96 243.17 42.32 243.57 41.776C243.97 41.232 244.53 40.816 245.25 40.528C245.97 40.224 246.802 40.072 247.746 40.072C248.29 40.072 248.818 40.128 249.33 40.24C249.842 40.352 250.322 40.512 250.77 40.72C251.234 40.928 251.626 41.192 251.946 41.512L251.25 43.144C250.946 42.872 250.594 42.64 250.194 42.448C249.81 42.256 249.41 42.112 248.994 42.016C248.578 41.904 248.162 41.848 247.746 41.848C246.898 41.848 246.258 42.008 245.826 42.328C245.41 42.632 245.202 43.048 245.202 43.576C245.202 43.976 245.33 44.304 245.586 44.56C245.842 44.816 246.242 45 246.786 45.112L249.066 45.568C250.106 45.776 250.89 46.128 251.418 46.624C251.962 47.12 252.234 47.792 252.234 48.64C252.234 49.376 252.034 50.016 251.634 50.56C251.234 51.104 250.666 51.52 249.93 51.808C249.21 52.08 248.37 52.216 247.41 52.216Z" fill="url(#paint0_linear_2484_9561)"/>
<g clip-path="url(#clip0_2484_9561)">
<path d="M54 26.1296L52.5469 21.9601L53.5469 19.5681C53.6719 19.2525 53.6094 18.9037 53.3906 18.6545L50.6563 15.7143C49.4531 14.4352 47.6719 13.9867 46.0625 14.5847L45.2969 14.8671L41.1094 10.0498L34.0312 10H33.9844L26.8594 10.0664L22.6875 14.9169L21.9375 14.6346C20.3125 14.0199 18.5156 14.4684 17.3125 15.7807L14.5313 18.7708C14.3438 18.9701 14.2969 19.2525 14.3906 19.5017L15.4375 21.9934L14 26.1628L14.9375 29.9336L19.1875 47.093C19.6719 49.0698 20.7969 50.7973 22.375 51.9934C22.375 51.9934 27.5312 55.8638 32.6094 59.3688C33.0625 59.6844 33.5312 59.9003 34.0312 59.9003C34.5312 59.9003 35 59.6844 35.4531 59.3688C41.1719 55.3821 45.6875 51.9767 45.6875 51.9767C47.25 50.7807 48.375 49.0532 48.8594 47.0764L53.0781 29.9169L54 26.1296Z" fill="#F15A22"/>
<path opacity="0.15" d="M19.3906 47.8237L14 26.528L15.5781 22.3586L14.4844 19.2689L17.0937 16.445C17.9531 15.631 19.6406 15.3486 20.4219 15.8304L24.5 18.3221L29.8125 19.6344L33.9531 17.8071L34.2969 55.631C34.2344 61.0795 34.5625 60.4981 30.7969 57.9234L21.5 51.2955C20.5 50.2822 19.7344 49.136 19.3906 47.8237Z" fill="url(#paint1_linear_2484_9561)"/>
<path opacity="0.4" d="M45.5937 51.9011L37.6875 57.6487C35.4844 58.9277 34.4219 60.1902 34.25 59.5756C34.1094 59.0938 34.2188 57.6819 34.1719 55.4892L34.0781 18.4958C34.0938 18.1304 34.3281 17.5158 34.7344 17.5822L38.7656 18.8779L44.5781 17.9144L48.4219 14.9078C48.8281 14.5756 49.4219 14.6088 49.7969 14.9908L53.2344 18.4792C53.5469 18.8281 53.5625 19.5091 53.375 19.941L52.4219 21.8181L54 26.1536L48.5625 47.6487C47.7187 50.3231 46.5312 51.0207 45.5937 51.9011Z" fill="url(#paint2_linear_2484_9561)"/>
<path d="M34.9371 40.6983C34.7496 40.6153 34.5465 40.5488 34.484 40.5488H33.984C33.9215 40.5488 33.7183 40.6153 33.5308 40.6983L31.4996 41.5953C31.3121 41.6784 30.9996 41.8279 30.8121 41.9276L27.7496 43.6219C27.5621 43.7216 27.5465 43.9043 27.7183 44.0372L30.4215 46.0638C30.5933 46.1967 30.859 46.4126 31.0152 46.5621L32.2183 47.6585C32.3746 47.808 32.6246 48.0405 32.7808 48.19L33.9371 49.2864C34.0933 49.4359 34.3433 49.4359 34.4996 49.2864L35.6871 48.19C35.8433 48.0405 36.0933 47.808 36.2496 47.6585L37.4527 46.5455C37.609 46.396 37.8746 46.1801 38.0465 46.0472L40.7496 44.004C40.9215 43.8711 40.9058 43.6884 40.7183 43.5887L37.6558 41.9276C37.4683 41.8279 37.1558 41.6784 36.9683 41.5953L34.9371 40.6983Z" fill="white"/>
<path d="M49.596 26.8701C49.6585 26.6542 49.6585 26.5711 49.6585 26.5711C49.6585 26.3552 49.6428 25.9897 49.6116 25.7738L49.4553 25.292C49.3616 25.0927 49.2053 24.7771 49.0803 24.5944L47.3147 21.8203C47.2053 21.6376 47.0022 21.3552 46.8616 21.1724L44.5803 18.1326C44.4553 17.9665 44.3303 17.817 44.3147 17.8336H44.2835C44.2835 17.8336 44.1116 17.8668 43.9085 17.9L40.4241 18.6309C40.221 18.6807 39.8928 18.7472 39.6897 18.7804L39.6272 18.797C39.4241 18.8303 39.096 18.8136 38.8928 18.7472L35.971 17.7505C35.7678 17.6841 35.4397 17.5844 35.2522 17.5346C35.2522 17.5346 34.6585 17.3851 34.1741 17.4017C33.6897 17.4017 33.096 17.5346 33.096 17.5346C32.8928 17.5844 32.5647 17.6841 32.3772 17.7505L29.4553 18.7472C29.2522 18.8136 28.9241 18.8303 28.721 18.797L28.6585 18.7804C28.4553 18.7472 28.1272 18.6641 27.9241 18.6309L24.4085 17.9332C24.2053 17.8834 24.0335 17.8668 24.0335 17.8668H24.0022C23.9866 17.8668 23.8616 17.9997 23.7366 18.1658L21.4553 21.2057C21.3303 21.3718 21.1272 21.6708 21.0022 21.8535L19.2366 24.6276C19.1272 24.8103 18.9553 25.1259 18.8616 25.3253L18.7053 25.807C18.6741 26.0229 18.6428 26.3884 18.6585 26.6043C18.6585 26.6043 18.6585 26.6708 18.721 26.9033C18.8303 27.302 19.096 27.6675 19.096 27.6675C19.221 27.8336 19.4553 28.116 19.596 28.2655L24.7678 34.1126C24.9085 34.2788 24.9553 34.5778 24.8772 34.7771L23.7991 37.4847C23.721 37.6841 23.7053 38.0163 23.7835 38.2322L24.0803 39.0794C24.3303 39.7937 24.7522 40.4249 25.3147 40.9067L26.3616 41.8037C26.5178 41.9366 26.7991 41.9864 26.9866 41.8867L30.2991 40.209C30.4866 40.1093 30.7678 39.91 30.9241 39.7605L33.2991 37.4847C33.6428 37.1525 33.6585 36.5877 33.346 36.2223L28.3616 32.6508C28.1897 32.5346 28.1272 32.2688 28.221 32.0695L30.4085 27.6841C30.5022 27.4847 30.5178 27.1691 30.4397 26.9698L30.1741 26.3219C30.096 26.1226 29.8616 25.8901 29.6741 25.807L23.2522 23.2489C23.0647 23.1658 23.0647 23.0827 23.2678 23.0661L27.4085 22.6508C27.6116 22.6342 27.9397 22.6675 28.1428 22.7173L31.8303 23.8136C32.0335 23.8801 32.1585 24.096 32.1272 24.312L30.846 31.7705C30.8147 31.9864 30.8147 32.2854 30.8616 32.4515C30.9085 32.6176 31.1116 32.7671 31.3147 32.817L33.8772 33.3984C34.0803 33.4482 34.4085 33.4482 34.6116 33.3984L37.0022 32.817C37.2053 32.7671 37.4085 32.601 37.4553 32.4515C37.5022 32.302 37.5178 31.9864 37.471 31.7705L36.2053 24.312C36.1741 24.096 36.2991 23.8635 36.5022 23.8136L40.1897 22.7173C40.3928 22.6508 40.721 22.6342 40.9241 22.6508L45.0647 23.0661C45.2678 23.0827 45.2835 23.1658 45.0803 23.2489L38.6585 25.8402C38.471 25.9233 38.2366 26.1392 38.1585 26.3552L37.8928 27.003C37.8147 27.2023 37.8147 27.5346 37.9241 27.7173L40.1272 32.1027C40.221 32.302 40.1585 32.5512 39.9866 32.6841L35.0022 36.2721C34.6741 36.6209 34.7053 37.2023 35.0491 37.5346L37.4241 39.8103C37.5803 39.9598 37.8616 40.1592 38.0491 40.2422L41.3772 41.92C41.5647 42.0196 41.846 41.9698 42.0022 41.8369L43.0491 40.9233C43.6116 40.4415 44.0335 39.8103 44.2678 39.096L44.5647 38.2489C44.6428 38.0495 44.6272 37.7007 44.5491 37.5013L43.471 34.7937C43.3928 34.5944 43.4397 34.2954 43.5803 34.1293L48.7522 28.2821C48.8928 28.116 49.1116 27.8502 49.2522 27.6841C49.221 27.6342 49.5022 27.2688 49.596 26.8701Z" fill="white"/>
</g>
<defs>
<filter id="filter0_d_2484_9561" x="0" y="0" width="266" height="77" filterUnits="userSpaceOnUse" color-interpolation-filters="sRGB">
<feFlood flood-opacity="0" result="BackgroundImageFix"/>
<feColorMatrix in="SourceAlpha" type="matrix" values="0 0 0 0 0 0 0 0 0 0 0 0 0 0 0 0 0 0 127 0" result="hardAlpha"/>
<feOffset dy="4"/>
<feGaussianBlur stdDeviation="2"/>
<feComposite in2="hardAlpha" operator="out"/>
<feColorMatrix type="matrix" values="0 0 0 0 0 0 0 0 0 0 0 0 0 0 0 0 0 0 0.25 0"/>
<feBlend mode="normal" in2="BackgroundImageFix" result="effect1_dropShadow_2484_9561"/>
<feBlend mode="normal" in="SourceGraphic" in2="effect1_dropShadow_2484_9561" result="shape"/>
</filter>
<linearGradient id="paint0_linear_2484_9561" x1="65" y1="47.5" x2="258" y2="47.5" gradientUnits="userSpaceOnUse">
<stop stop-color="#F15B1D"/>
<stop offset="1" stop-color="#FE2812"/>
</linearGradient>
<linearGradient id="paint1_linear_2484_9561" x1="14" y1="2227.69" x2="2045.66" y2="2227.69" gradientUnits="userSpaceOnUse">
<stop stop-color="white"/>
<stop offset="0.1413" stop-color="white" stop-opacity="0.958"/>
<stop offset="1" stop-color="white" stop-opacity="0.7"/>
</linearGradient>
<linearGradient id="paint2_linear_2484_9561" x1="33.3012" y1="2266.68" x2="2026.27" y2="2266.68" gradientUnits="userSpaceOnUse">
<stop stop-color="#F1F1F2"/>
<stop offset="0.09191" stop-color="#E4E5E6"/>
<stop offset="0.2357" stop-color="#D9DADB"/>
<stop offset="0.438" stop-color="#D2D4D5"/>
<stop offset="1" stop-color="#D0D2D3"/>
</linearGradient>
<clipPath id="clip0_2484_9561">
<rect width="40" height="50" fill="white" transform="translate(14 10)"/>
</clipPath>
</defs>
</svg>
