<?xml version="1.0" encoding="UTF-8"?>
<svg id="uuid-7222403f-d262-4c6b-beff-a71b155cf7e6" data-name="uuid-896188ca-d862-4282-afde-d0afcbd9513d" xmlns="http://www.w3.org/2000/svg" width="200" height="200" viewBox="0 0 200 200">
  <path d="m100,0c38,0,70,21,87,51,0,0-66,1-88,1s-43,17-47,39l-30-54C41,14,69,0,100,0" style="fill: #606060;"/>
  <path d="m132,100c0,18-14,32-32,32s-32-14-32-32,14-32,32-32,32,14,32,32" style="fill: #606060;"/>
  <path d="m0,100c0-20,6-38,16-53,0,0,31,51,39,69s24,32,45,32c6,0,11-1,16-3l-31,54C37,192,0,150,0,100" style="fill: #606060;"/>
  <path d="m100,200h-3s27-52,39-68c7-9,12-20,12-32,0-15-8-29-19-38h64c4,12,7,25,7,38,0,55-45,100-100,100" style="fill: #606060;"/>
</svg>