<svg width="198" height="68" viewBox="0 0 198 68" fill="none" xmlns="http://www.w3.org/2000/svg">
<g filter="url(#filter0_d_2499_9560)">
<rect x="4" width="190" height="60" rx="10" fill="#1B1636"/>
</g>
<g clip-path="url(#clip0_2499_9560)">
<path d="M53.7552 23.3908C52.885 21.3683 51.1202 19.1846 49.738 18.4944C50.7237 20.3387 51.4077 22.3194 51.7659 24.3661L51.7695 24.3985C49.5055 18.9455 45.6661 16.7469 42.5305 11.9593C42.3685 11.7152 42.2112 11.4683 42.0587 11.2186C41.9802 11.0882 41.9066 10.955 41.8381 10.8194C41.708 10.5761 41.6077 10.3189 41.5394 10.0532C41.5395 10.0409 41.5349 10.029 41.5265 10.0198C41.5181 10.0106 41.5065 10.0047 41.4939 10.0032C41.4815 10.0002 41.4686 10.0002 41.4563 10.0032C41.4538 10.0032 41.4495 10.0077 41.4464 10.0088C41.4433 10.0098 41.4366 10.0142 41.432 10.0162L41.4397 10.0032C36.41 12.8483 34.7033 18.115 34.5462 20.7495C32.5376 20.8828 30.6172 21.5978 29.0355 22.8012C28.8705 22.6662 28.698 22.5399 28.5187 22.423C28.0624 20.8802 28.043 19.2473 28.4625 17.6948C26.6153 18.5592 24.974 19.7846 23.6425 21.2935H23.6331C22.8395 20.3217 22.8953 17.1173 22.9408 16.4479C22.706 16.5391 22.4819 16.6541 22.2722 16.7908C21.5716 17.2739 20.9167 17.8159 20.315 18.4104C19.6295 19.082 19.0033 19.8078 18.4431 20.5803V20.5831V20.5797C17.1559 22.343 16.2428 24.335 15.7564 26.4409L15.7297 26.5686C15.6558 26.97 15.5902 27.3727 15.5328 27.7766C15.5328 27.7911 15.5297 27.8046 15.5281 27.819C15.3528 28.6991 15.2441 29.5904 15.2031 30.4858V30.5857C15.2166 45.4779 31.9131 54.7714 45.2569 47.314C47.7964 45.8947 49.982 43.9537 51.6593 41.6283C53.3365 39.3029 54.4644 36.6499 54.9631 33.8569C54.9967 33.6074 55.0241 33.3603 55.0541 33.1083C55.4665 29.8152 55.02 26.4747 53.7552 23.3908ZM30.6753 38.5332C30.7689 38.5766 30.8567 38.6236 30.9528 38.6649L30.9667 38.6735C30.8689 38.6282 30.7717 38.5814 30.6753 38.5332ZM51.7711 24.403V24.3845L51.7747 24.405L51.7711 24.403Z" fill="url(#paint0_linear_2499_9560)"/>
<path d="M53.7552 23.3906C52.885 21.3681 51.1202 19.1844 49.738 18.4941C50.7237 20.3385 51.4077 22.3192 51.7659 24.3658V24.3843L51.7695 24.4048C53.3129 28.6716 53.0896 33.3495 51.1464 37.4609C48.8514 42.2181 43.2961 47.094 34.6005 46.8569C25.2048 46.5998 16.9303 39.8647 15.3834 31.0431C15.1019 29.652 15.3834 28.9468 15.525 27.8163C15.3318 28.6944 15.2241 29.588 15.2031 30.4855V30.5855C15.2166 45.4777 31.9131 54.7711 45.2569 47.3138C47.7964 45.8944 49.982 43.9535 51.6593 41.6281C53.3365 39.3027 54.4644 36.6497 54.9631 33.8567C54.9967 33.6072 55.0241 33.3601 55.0541 33.108C55.4665 29.8149 55.02 26.4745 53.7552 23.3906Z" fill="url(#paint1_radial_2499_9560)"/>
<path d="M53.7552 23.3906C52.885 21.3681 51.1202 19.1844 49.738 18.4941C50.7237 20.3385 51.4077 22.3192 51.7659 24.3658V24.3843L51.7695 24.4048C53.3129 28.6716 53.0896 33.3495 51.1464 37.4609C48.8514 42.2181 43.2961 47.094 34.6005 46.8569C25.2048 46.5998 16.9303 39.8647 15.3834 31.0431C15.1019 29.652 15.3834 28.9468 15.525 27.8163C15.3318 28.6944 15.2241 29.588 15.2031 30.4855V30.5855C15.2166 45.4777 31.9131 54.7711 45.2569 47.3138C47.7964 45.8944 49.982 43.9535 51.6593 41.6281C53.3365 39.3027 54.4644 36.6497 54.9631 33.8567C54.9967 33.6072 55.0241 33.3601 55.0541 33.108C55.4665 29.8149 55.02 26.4745 53.7552 23.3906Z" fill="url(#paint2_radial_2499_9560)"/>
<path d="M44.0237 25.6645C44.0671 25.6939 44.1075 25.7234 44.1482 25.7528C43.6452 24.8912 43.019 24.1023 42.2882 23.4094C36.0645 17.396 40.6571 10.3708 41.4317 10.0139L41.4393 10.0029C36.4096 12.8481 34.7029 18.1148 34.5459 20.7492C34.7795 20.7336 35.0109 20.7146 35.2496 20.7146C37.0343 20.7178 38.7863 21.1775 40.3274 22.0469C41.8686 22.9164 43.1439 24.1645 44.0237 25.6645Z" fill="url(#paint3_radial_2499_9560)"/>
<path d="M35.2632 26.8656C35.2301 27.3468 33.4702 29.0063 32.8549 29.0063C27.1607 29.0063 26.2363 32.334 26.2363 32.334C26.4885 35.1361 28.5098 37.4441 30.953 38.6649C31.0646 38.7209 31.1779 38.7713 31.291 38.8207C31.4847 38.9036 31.6807 38.9812 31.879 39.0533C32.7175 39.3399 33.5957 39.5036 34.4845 39.5388C44.4651 39.9911 46.3985 28.0092 39.196 24.5322C40.8951 24.3186 42.6158 24.7222 44.0243 25.6647C43.1445 24.1647 41.8691 22.9166 40.328 22.0471C38.7869 21.1777 37.0349 20.718 35.2502 20.7148C35.0126 20.7148 34.7801 20.7339 34.5465 20.7494C32.5378 20.8827 30.6174 21.5977 29.0357 22.8012C29.341 23.0508 29.6857 23.3843 30.4116 24.0754C31.7704 25.3687 35.2554 26.7084 35.2632 26.8656Z" fill="url(#paint4_radial_2499_9560)"/>
<path d="M35.2632 26.8656C35.2301 27.3468 33.4702 29.0063 32.8549 29.0063C27.1607 29.0063 26.2363 32.334 26.2363 32.334C26.4885 35.1361 28.5098 37.4441 30.953 38.6649C31.0646 38.7209 31.1779 38.7713 31.291 38.8207C31.4847 38.9036 31.6807 38.9812 31.879 39.0533C32.7175 39.3399 33.5957 39.5036 34.4845 39.5388C44.4651 39.9911 46.3985 28.0092 39.196 24.5322C40.8951 24.3186 42.6158 24.7222 44.0243 25.6647C43.1445 24.1647 41.8691 22.9166 40.328 22.0471C38.7869 21.1777 37.0349 20.718 35.2502 20.7148C35.0126 20.7148 34.7801 20.7339 34.5465 20.7494C32.5378 20.8827 30.6174 21.5977 29.0357 22.8012C29.341 23.0508 29.6857 23.3843 30.4116 24.0754C31.7704 25.3687 35.2554 26.7084 35.2632 26.8656Z" fill="url(#paint5_radial_2499_9560)"/>
<path d="M28.1018 22.1574C28.2413 22.2432 28.3791 22.3316 28.5151 22.4225C28.0587 20.8797 28.0393 19.2469 28.4588 17.6943C26.6116 18.5587 24.9703 19.7841 23.6387 21.293C23.7363 21.2904 26.6412 21.24 28.1018 22.1574Z" fill="url(#paint6_radial_2499_9560)"/>
<path d="M15.3863 31.0435C16.9316 39.865 25.2077 46.6001 34.6033 46.8572C43.2989 47.0948 48.8541 42.2184 51.1492 37.4613C53.0925 33.3498 53.3157 28.6719 51.7723 24.4051V24.3867C51.7723 24.3722 51.7692 24.3636 51.7723 24.3681L51.7759 24.4006C52.4864 28.8812 50.1272 33.2222 46.4392 36.1574L46.4278 36.1825C39.242 41.8361 32.365 39.5935 30.9731 38.678C30.8752 38.6328 30.7781 38.586 30.6817 38.5378C26.492 36.6032 24.7613 32.9156 25.1322 29.7532C24.1376 29.7674 23.1602 29.5027 22.3182 28.9911C21.4763 28.4795 20.806 27.743 20.3886 26.8708C21.4884 26.2199 22.7424 25.852 24.0311 25.8021C25.3199 25.7521 26.6004 26.0218 27.7506 26.5854C30.1221 27.6253 32.8206 27.7278 35.2692 26.8708C35.2616 26.7135 31.7766 25.3734 30.4177 24.0807C29.6917 23.3894 29.3472 23.0564 29.0419 22.8065C28.8769 22.6713 28.7044 22.545 28.5252 22.4281C28.4063 22.3497 28.2725 22.2649 28.1119 22.163C26.6513 21.2456 23.7464 21.296 23.6503 21.2986H23.6411C22.8475 20.3268 22.9033 17.1224 22.9488 16.4531C22.714 16.5443 22.4899 16.6592 22.2802 16.7959C21.5796 17.279 20.9247 17.821 20.323 18.4155C19.635 19.0852 19.0062 19.8094 18.4433 20.5804V20.5832V20.5798C17.1561 22.3431 16.2429 24.3351 15.7566 26.441C15.7469 26.4804 15.0353 29.4851 15.3863 31.0435Z" fill="url(#paint7_radial_2499_9560)"/>
<path d="M42.2895 23.4097C43.0205 24.1034 43.6466 24.8931 44.1495 25.7557C44.2532 25.8304 44.3534 25.9096 44.4496 25.9932C48.9896 30.0361 46.6109 35.7511 46.4337 36.1579C50.1216 33.2225 52.4787 28.8817 51.7704 24.4009C49.5052 18.9455 45.6659 16.7469 42.5302 11.9593C42.3683 11.7152 42.211 11.4683 42.0585 11.2186C41.98 11.0882 41.9064 10.955 41.8379 10.8194C41.7078 10.5761 41.6075 10.3189 41.5391 10.0532C41.5393 10.0409 41.5347 10.029 41.5263 10.0198C41.5179 10.0106 41.5063 10.0047 41.4937 10.0032C41.4813 10.0002 41.4684 10.0002 41.456 10.0032C41.4535 10.0032 41.4493 10.0077 41.4462 10.0088C41.4431 10.0098 41.4363 10.0142 41.4318 10.0162C40.6573 10.3711 36.0646 17.3963 42.2895 23.4097Z" fill="url(#paint8_radial_2499_9560)"/>
<path d="M44.4471 25.9908C44.3509 25.9072 44.2507 25.828 44.147 25.7533C44.1062 25.7238 44.0659 25.6944 44.0224 25.665C42.6139 24.7224 40.8932 24.3188 39.1941 24.5324C46.3965 28.0114 44.4641 39.9913 34.4826 39.5391C33.5939 39.5038 32.7156 39.3401 31.8771 39.0535C31.6787 38.9817 31.4826 38.9041 31.2891 38.8209C31.1759 38.7709 31.0627 38.7211 30.9512 38.6651L30.9651 38.6737C32.357 39.5916 39.2318 41.8342 46.4198 36.178L46.4312 36.1531C46.6104 35.7487 48.9891 30.0323 44.4471 25.9908Z" fill="url(#paint9_radial_2499_9560)"/>
<path d="M26.2357 32.3341C26.2357 32.3341 27.1601 29.0064 32.8543 29.0064C33.4696 29.0064 35.2311 27.3469 35.2626 26.8657C32.814 27.7227 30.1155 27.6202 27.744 26.5802C26.5937 26.0166 25.3132 25.7469 24.0244 25.7969C22.7357 25.8469 21.4817 26.2149 20.3818 26.8657C20.7992 27.7379 21.4695 28.4744 22.3115 28.986C23.1534 29.4976 24.1309 29.7624 25.1254 29.7482C24.7545 32.9112 26.4853 36.5987 30.675 38.5328C30.7686 38.5762 30.8564 38.6232 30.9525 38.6645C28.5071 37.4442 26.4879 35.1362 26.2357 32.3341Z" fill="url(#paint10_radial_2499_9560)"/>
<path d="M53.7552 23.3908C52.885 21.3683 51.1202 19.1846 49.738 18.4944C50.7237 20.3387 51.4077 22.3194 51.7659 24.3661L51.7695 24.3985C49.5055 18.9455 45.6661 16.7469 42.5305 11.9593C42.3685 11.7152 42.2112 11.4683 42.0587 11.2186C41.9802 11.0882 41.9066 10.955 41.8381 10.8194C41.708 10.5761 41.6077 10.3189 41.5394 10.0532C41.5395 10.0409 41.5349 10.029 41.5265 10.0198C41.5181 10.0106 41.5065 10.0047 41.4939 10.0032C41.4815 10.0002 41.4686 10.0002 41.4563 10.0032C41.4538 10.0032 41.4495 10.0077 41.4464 10.0088C41.4433 10.0098 41.4366 10.0142 41.432 10.0162L41.4397 10.0032C36.41 12.8483 34.7033 18.115 34.5462 20.7495C34.7798 20.7339 35.0112 20.7149 35.25 20.7149C37.0347 20.7181 38.7866 21.1778 40.3278 22.0472C41.8689 22.9166 43.1442 24.1648 44.0241 25.6648C42.6156 24.7222 40.8949 24.3186 39.1958 24.5323C46.3983 28.0112 44.4659 39.9911 34.4842 39.5389C33.5955 39.5036 32.7173 39.34 31.8787 39.0533C31.6804 38.9815 31.4843 38.904 31.2908 38.8207C31.1777 38.7708 31.0644 38.7209 30.9528 38.6649L30.9667 38.6735C30.8689 38.6282 30.7717 38.5814 30.6753 38.5332C30.7689 38.5766 30.8567 38.6236 30.9528 38.6649C28.5075 37.4441 26.4883 35.1362 26.2361 32.3341C26.2361 32.3341 27.1605 29.0064 32.8547 29.0064C33.47 29.0064 35.2314 27.3469 35.263 26.8657C35.2552 26.7084 31.7702 25.3683 30.4114 24.0755C29.6855 23.3843 29.3408 23.0514 29.0355 22.8012C28.8705 22.6662 28.698 22.5399 28.5187 22.423C28.0624 20.8802 28.043 19.2473 28.4625 17.6948C26.6153 18.5592 24.974 19.7846 23.6425 21.2935H23.6331C22.8395 20.3217 22.8953 17.1173 22.9408 16.4479C22.706 16.5391 22.4819 16.6541 22.2722 16.7908C21.5716 17.2739 20.9167 17.8159 20.315 18.4104C19.6295 19.082 19.0033 19.8078 18.4431 20.5803V20.5831V20.5797C17.1559 22.343 16.2428 24.335 15.7564 26.4409L15.7297 26.5686C15.6919 26.7389 15.523 27.6034 15.4986 27.789C15.4986 27.7745 15.4986 27.803 15.4986 27.789C15.344 28.6814 15.2454 29.5819 15.2031 30.4858V30.5857C15.2166 45.4779 31.9131 54.7714 45.2569 47.314C47.7964 45.8947 49.982 43.9537 51.6593 41.6283C53.3365 39.3029 54.4644 36.6499 54.9631 33.8569C54.9967 33.6074 55.0241 33.3603 55.0541 33.1083C55.4665 29.8152 55.02 26.4747 53.7552 23.3908Z" fill="url(#paint11_linear_2499_9560)"/>
</g>
<path d="M66.312 22V10.72H73.48V12.064H67.976V15.664H73.144V17.008H67.976V22H66.312ZM74.8514 12.384V10.704H76.7394V12.384H74.8514ZM74.9954 22V14.192H76.6114V22H74.9954ZM78.886 22V14.192H80.454V16.064H80.294C80.4647 15.424 80.7687 14.9387 81.206 14.608C81.654 14.2773 82.246 14.0853 82.982 14.032L83.51 14L83.622 15.376L82.646 15.472C81.9527 15.536 81.4247 15.7547 81.062 16.128C80.6993 16.5013 80.518 17.0133 80.518 17.664V22H78.886ZM88.4094 22.144C87.556 22.144 86.82 21.984 86.2014 21.664C85.5934 21.3333 85.1187 20.8693 84.7774 20.272C84.4467 19.664 84.2814 18.944 84.2814 18.112C84.2814 17.3013 84.4467 16.592 84.7774 15.984C85.108 15.376 85.5614 14.9013 86.1374 14.56C86.7134 14.2187 87.3694 14.048 88.1054 14.048C88.8307 14.048 89.4494 14.208 89.9614 14.528C90.484 14.8373 90.884 15.28 91.1614 15.856C91.4387 16.432 91.5774 17.12 91.5774 17.92V18.464H85.5614V17.472H90.4894L90.2174 17.696C90.2174 16.896 90.0414 16.2773 89.6894 15.84C89.3374 15.4027 88.8307 15.184 88.1694 15.184C87.668 15.184 87.2414 15.3013 86.8894 15.536C86.548 15.7707 86.2867 16.096 86.1054 16.512C85.924 16.928 85.8334 17.4133 85.8334 17.968V18.064C85.8334 18.6827 85.9294 19.2053 86.1214 19.632C86.324 20.048 86.6174 20.3627 87.0014 20.576C87.3854 20.7893 87.86 20.896 88.4254 20.896C88.8734 20.896 89.3107 20.8267 89.7374 20.688C90.1747 20.5387 90.5854 20.3093 90.9694 20L91.4494 21.12C91.0974 21.44 90.644 21.6907 90.0894 21.872C89.5347 22.0533 88.9747 22.144 88.4094 22.144ZM93.7875 22V15.44H92.2675V14.192H94.2515L93.7875 14.624V14.048C93.7875 12.9813 94.0595 12.176 94.6035 11.632C95.1582 11.0773 96.0062 10.768 97.1475 10.704L97.8515 10.656L97.9635 11.872L97.2275 11.92C96.7902 11.9413 96.4382 12.0267 96.1715 12.176C95.9048 12.3253 95.7075 12.5387 95.5795 12.816C95.4622 13.0827 95.4035 13.4187 95.4035 13.824V14.448L95.1795 14.192H97.5955V15.44H95.4035V22H93.7875ZM102.044 22.144C101.254 22.144 100.572 21.9787 99.9956 21.648C99.4303 21.3173 98.9876 20.848 98.6676 20.24C98.3476 19.632 98.1876 18.9173 98.1876 18.096C98.1876 17.264 98.3476 16.5493 98.6676 15.952C98.9876 15.344 99.4303 14.8747 99.9956 14.544C100.572 14.2133 101.254 14.048 102.044 14.048C102.822 14.048 103.494 14.2133 104.06 14.544C104.636 14.8747 105.084 15.344 105.404 15.952C105.724 16.56 105.884 17.2747 105.884 18.096C105.884 18.9173 105.724 19.632 105.404 20.24C105.084 20.848 104.636 21.3173 104.06 21.648C103.494 21.9787 102.822 22.144 102.044 22.144ZM102.028 20.896C102.7 20.896 103.238 20.656 103.644 20.176C104.049 19.696 104.252 19.0027 104.252 18.096C104.252 17.1787 104.049 16.4853 103.644 16.016C103.238 15.5467 102.7 15.312 102.028 15.312C101.366 15.312 100.833 15.5467 100.428 16.016C100.022 16.4853 99.8196 17.1787 99.8196 18.096C99.8196 19.0027 100.022 19.696 100.428 20.176C100.833 20.656 101.366 20.896 102.028 20.896ZM106.471 22L110.039 17.568V18.368L106.679 14.192H108.567L110.951 17.232H110.375L112.759 14.192H114.647L111.287 18.336V17.616L114.855 22H112.935L110.375 18.768H110.919L108.375 22H106.471ZM120.437 22V10.72H125.141C126.314 10.72 127.221 10.9813 127.861 11.504C128.512 12.016 128.837 12.736 128.837 13.664C128.837 14.3467 128.634 14.9227 128.229 15.392C127.824 15.8613 127.274 16.176 126.581 16.336V16.096C127.104 16.1707 127.552 16.3307 127.925 16.576C128.309 16.8107 128.602 17.1253 128.805 17.52C129.008 17.904 129.109 18.3573 129.109 18.88C129.109 19.5413 128.96 20.1067 128.661 20.576C128.362 21.0453 127.93 21.4027 127.365 21.648C126.8 21.8827 126.122 22 125.333 22H120.437ZM122.037 20.72H125.141C125.461 20.72 125.744 20.6987 125.989 20.656C126.245 20.6027 126.464 20.528 126.645 20.432C126.837 20.3253 126.997 20.1973 127.125 20.048C127.253 19.888 127.344 19.7067 127.397 19.504C127.461 19.3013 127.493 19.072 127.493 18.816C127.493 18.56 127.461 18.3307 127.397 18.128C127.344 17.9253 127.253 17.7493 127.125 17.6C126.997 17.4507 126.837 17.328 126.645 17.232C126.464 17.1253 126.245 17.0507 125.989 17.008C125.744 16.9547 125.461 16.928 125.141 16.928H122.037V20.72ZM122.037 15.648H124.885C125.653 15.648 126.234 15.4933 126.629 15.184C127.024 14.8747 127.221 14.4213 127.221 13.824C127.221 13.2267 127.024 12.7733 126.629 12.464C126.234 12.1547 125.653 12 124.885 12H122.037V15.648ZM131.167 22V14.192H132.735V16.064H132.575C132.746 15.424 133.05 14.9387 133.487 14.608C133.935 14.2773 134.527 14.0853 135.263 14.032L135.791 14L135.903 15.376L134.927 15.472C134.234 15.536 133.706 15.7547 133.343 16.128C132.981 16.5013 132.799 17.0133 132.799 17.664V22H131.167ZM140.419 22.144C139.629 22.144 138.947 21.9787 138.371 21.648C137.805 21.3173 137.363 20.848 137.043 20.24C136.723 19.632 136.563 18.9173 136.563 18.096C136.563 17.264 136.723 16.5493 137.043 15.952C137.363 15.344 137.805 14.8747 138.371 14.544C138.947 14.2133 139.629 14.048 140.419 14.048C141.197 14.048 141.869 14.2133 142.435 14.544C143.011 14.8747 143.459 15.344 143.779 15.952C144.099 16.56 144.259 17.2747 144.259 18.096C144.259 18.9173 144.099 19.632 143.779 20.24C143.459 20.848 143.011 21.3173 142.435 21.648C141.869 21.9787 141.197 22.144 140.419 22.144ZM140.403 20.896C141.075 20.896 141.613 20.656 142.019 20.176C142.424 19.696 142.627 19.0027 142.627 18.096C142.627 17.1787 142.424 16.4853 142.019 16.016C141.613 15.5467 141.075 15.312 140.403 15.312C139.741 15.312 139.208 15.5467 138.803 16.016C138.397 16.4853 138.195 17.1787 138.195 18.096C138.195 19.0027 138.397 19.696 138.803 20.176C139.208 20.656 139.741 20.896 140.403 20.896ZM148.045 22L145.069 14.192H146.733L149.021 20.64H148.637L150.989 14.192H152.237L154.541 20.64H154.189L156.493 14.192H158.077L155.101 22H153.629L151.165 15.344H151.965L149.517 22H148.045ZM162.044 22.144C161.628 22.144 161.223 22.1067 160.828 22.032C160.433 21.9573 160.071 21.8507 159.74 21.712C159.409 21.5733 159.116 21.4027 158.86 21.2L159.324 20.112C159.591 20.2933 159.873 20.4533 160.172 20.592C160.471 20.72 160.78 20.816 161.1 20.88C161.431 20.944 161.751 20.976 162.06 20.976C162.625 20.976 163.052 20.8747 163.34 20.672C163.628 20.4693 163.772 20.1973 163.772 19.856C163.772 19.5787 163.676 19.3653 163.484 19.216C163.292 19.056 163.004 18.9333 162.62 18.848L161.1 18.544C160.439 18.4053 159.937 18.16 159.596 17.808C159.255 17.456 159.084 17.008 159.084 16.464C159.084 15.9733 159.217 15.5467 159.484 15.184C159.751 14.8213 160.124 14.544 160.604 14.352C161.084 14.1493 161.639 14.048 162.268 14.048C162.631 14.048 162.983 14.0853 163.324 14.16C163.665 14.2347 163.985 14.3413 164.284 14.48C164.593 14.6187 164.855 14.7947 165.068 15.008L164.604 16.096C164.401 15.9147 164.167 15.76 163.9 15.632C163.644 15.504 163.377 15.408 163.1 15.344C162.823 15.2693 162.545 15.232 162.268 15.232C161.703 15.232 161.276 15.3387 160.988 15.552C160.711 15.7547 160.572 16.032 160.572 16.384C160.572 16.6507 160.657 16.8693 160.828 17.04C160.999 17.2107 161.265 17.3333 161.628 17.408L163.148 17.712C163.841 17.8507 164.364 18.0853 164.716 18.416C165.079 18.7467 165.26 19.1947 165.26 19.76C165.26 20.2507 165.127 20.6773 164.86 21.04C164.593 21.4027 164.215 21.68 163.724 21.872C163.244 22.0533 162.684 22.144 162.044 22.144ZM170.722 22.144C169.869 22.144 169.133 21.984 168.514 21.664C167.906 21.3333 167.431 20.8693 167.09 20.272C166.759 19.664 166.594 18.944 166.594 18.112C166.594 17.3013 166.759 16.592 167.09 15.984C167.421 15.376 167.874 14.9013 168.45 14.56C169.026 14.2187 169.682 14.048 170.418 14.048C171.143 14.048 171.762 14.208 172.274 14.528C172.797 14.8373 173.197 15.28 173.474 15.856C173.751 16.432 173.89 17.12 173.89 17.92V18.464H167.874V17.472H172.802L172.53 17.696C172.53 16.896 172.354 16.2773 172.002 15.84C171.65 15.4027 171.143 15.184 170.482 15.184C169.981 15.184 169.554 15.3013 169.202 15.536C168.861 15.7707 168.599 16.096 168.418 16.512C168.237 16.928 168.146 17.4133 168.146 17.968V18.064C168.146 18.6827 168.242 19.2053 168.434 19.632C168.637 20.048 168.93 20.3627 169.314 20.576C169.698 20.7893 170.173 20.896 170.738 20.896C171.186 20.896 171.623 20.8267 172.05 20.688C172.487 20.5387 172.898 20.3093 173.282 20L173.762 21.12C173.41 21.44 172.957 21.6907 172.402 21.872C171.847 22.0533 171.287 22.144 170.722 22.144ZM175.652 22V14.192H177.22V16.064H177.06C177.23 15.424 177.534 14.9387 177.972 14.608C178.42 14.2773 179.012 14.0853 179.748 14.032L180.276 14L180.388 15.376L179.412 15.472C178.718 15.536 178.19 15.7547 177.828 16.128C177.465 16.5013 177.284 17.0133 177.284 17.664V22H175.652Z" fill="#938FAA"/>
<path d="M65.264 51L72.8 34.08H74.864L82.424 51H79.88L77.816 46.2L78.944 46.872H68.72L69.824 46.2L67.784 51H65.264ZM73.808 36.84L70.184 45.432L69.584 44.856H78.056L77.504 45.432L73.856 36.84H73.808ZM84.6399 51V34.08H90.6159C92.4719 34.08 94.0479 34.408 95.3439 35.064C96.6399 35.704 97.6239 36.656 98.2959 37.92C98.9839 39.168 99.3279 40.704 99.3279 42.528C99.3279 44.352 98.9839 45.896 98.2959 47.16C97.6239 48.408 96.6399 49.36 95.3439 50.016C94.0479 50.672 92.4719 51 90.6159 51H84.6399ZM87.1359 48.912H90.4719C92.5679 48.912 94.1359 48.384 95.1759 47.328C96.2159 46.256 96.7359 44.656 96.7359 42.528C96.7359 40.4 96.2079 38.808 95.1519 37.752C94.1119 36.696 92.5519 36.168 90.4719 36.168H87.1359V48.912ZM102.663 51V34.08H108.639C110.495 34.08 112.071 34.408 113.367 35.064C114.663 35.704 115.647 36.656 116.319 37.92C117.007 39.168 117.351 40.704 117.351 42.528C117.351 44.352 117.007 45.896 116.319 47.16C115.647 48.408 114.663 49.36 113.367 50.016C112.071 50.672 110.495 51 108.639 51H102.663ZM105.159 48.912H108.495C110.591 48.912 112.159 48.384 113.199 47.328C114.239 46.256 114.759 44.656 114.759 42.528C114.759 40.4 114.231 38.808 113.175 37.752C112.135 36.696 110.575 36.168 108.495 36.168H105.159V48.912ZM120.399 45.576V43.608H127.311V45.576H120.399ZM138.32 51.216C137.12 51.216 136.032 51.016 135.056 50.616C134.08 50.216 133.24 49.632 132.536 48.864C131.848 48.096 131.32 47.184 130.952 46.128C130.584 45.056 130.4 43.856 130.4 42.528C130.4 41.2 130.584 40.008 130.952 38.952C131.32 37.88 131.848 36.968 132.536 36.216C133.224 35.448 134.056 34.864 135.032 34.464C136.008 34.064 137.104 33.864 138.32 33.864C139.52 33.864 140.608 34.064 141.584 34.464C142.56 34.864 143.392 35.44 144.08 36.192C144.784 36.944 145.32 37.856 145.688 38.928C146.056 39.984 146.24 41.176 146.24 42.504C146.24 43.832 146.056 45.032 145.688 46.104C145.32 47.176 144.784 48.096 144.08 48.864C143.392 49.632 142.56 50.216 141.584 50.616C140.608 51.016 139.52 51.216 138.32 51.216ZM138.32 49.056C139.44 49.056 140.392 48.8 141.176 48.288C141.976 47.776 142.584 47.032 143 46.056C143.432 45.08 143.648 43.904 143.648 42.528C143.648 41.152 143.44 39.976 143.024 39C142.608 38.024 142 37.288 141.2 36.792C140.416 36.28 139.456 36.024 138.32 36.024C137.2 36.024 136.24 36.28 135.44 36.792C134.656 37.288 134.048 38.024 133.616 39C133.2 39.976 132.992 41.152 132.992 42.528C132.992 43.888 133.2 45.064 133.616 46.056C134.048 47.032 134.656 47.776 135.44 48.288C136.24 48.8 137.2 49.056 138.32 49.056ZM149.585 51V34.08H151.481L161.777 47.664H161.177V34.08H163.481V51H161.633L151.337 37.416H151.889V51H149.585ZM173.061 51.216C172.181 51.216 171.341 51.144 170.541 51C169.757 50.84 169.029 50.616 168.357 50.328C167.701 50.024 167.117 49.664 166.605 49.248L167.397 47.28C167.941 47.68 168.501 48.016 169.077 48.288C169.653 48.56 170.269 48.768 170.925 48.912C171.581 49.04 172.293 49.104 173.061 49.104C174.421 49.104 175.421 48.864 176.061 48.384C176.717 47.888 177.045 47.248 177.045 46.464C177.045 46.032 176.941 45.664 176.733 45.36C176.541 45.056 176.221 44.8 175.773 44.592C175.325 44.368 174.741 44.184 174.021 44.04L171.453 43.512C169.933 43.192 168.797 42.664 168.045 41.928C167.309 41.192 166.941 40.2 166.941 38.952C166.941 37.928 167.213 37.032 167.757 36.264C168.301 35.496 169.045 34.904 169.989 34.488C170.949 34.072 172.053 33.864 173.301 33.864C174.069 33.864 174.797 33.944 175.485 34.104C176.189 34.248 176.837 34.472 177.429 34.776C178.037 35.08 178.565 35.448 179.013 35.88L178.197 37.776C177.509 37.168 176.765 36.72 175.965 36.432C175.165 36.128 174.269 35.976 173.277 35.976C172.493 35.976 171.805 36.096 171.213 36.336C170.637 36.576 170.189 36.912 169.869 37.344C169.565 37.776 169.413 38.288 169.413 38.88C169.413 39.552 169.629 40.088 170.061 40.488C170.493 40.888 171.213 41.192 172.221 41.4L174.765 41.928C176.365 42.264 177.557 42.784 178.341 43.488C179.125 44.192 179.517 45.128 179.517 46.296C179.517 47.272 179.253 48.136 178.725 48.888C178.197 49.624 177.453 50.2 176.493 50.616C175.533 51.016 174.389 51.216 173.061 51.216Z" fill="white"/>
<defs>
<filter id="filter0_d_2499_9560" x="0" y="0" width="198" height="68" filterUnits="userSpaceOnUse" color-interpolation-filters="sRGB">
<feFlood flood-opacity="0" result="BackgroundImageFix"/>
<feColorMatrix in="SourceAlpha" type="matrix" values="0 0 0 0 0 0 0 0 0 0 0 0 0 0 0 0 0 0 127 0" result="hardAlpha"/>
<feOffset dy="4"/>
<feGaussianBlur stdDeviation="2"/>
<feComposite in2="hardAlpha" operator="out"/>
<feColorMatrix type="matrix" values="0 0 0 0 0 0 0 0 0 0 0 0 0 0 0 0 0 0 0.25 0"/>
<feBlend mode="normal" in2="BackgroundImageFix" result="effect1_dropShadow_2499_9560"/>
<feBlend mode="normal" in="SourceGraphic" in2="effect1_dropShadow_2499_9560" result="shape"/>
</filter>
<linearGradient id="paint0_linear_2499_9560" x1="51.1045" y1="16.1843" x2="18.9708" y2="48.2773" gradientUnits="userSpaceOnUse">
<stop offset="0.048" stop-color="#FFF44F"/>
<stop offset="0.111" stop-color="#FFE847"/>
<stop offset="0.225" stop-color="#FFC830"/>
<stop offset="0.368" stop-color="#FF980E"/>
<stop offset="0.401" stop-color="#FF8B16"/>
<stop offset="0.462" stop-color="#FF672A"/>
<stop offset="0.534" stop-color="#FF3647"/>
<stop offset="0.705" stop-color="#E31587"/>
</linearGradient>
<radialGradient id="paint1_radial_2499_9560" cx="0" cy="0" r="1" gradientUnits="userSpaceOnUse" gradientTransform="translate(49.5692 14.4308) scale(41.7455 40.3278)">
<stop offset="0.129" stop-color="#FFBD4F"/>
<stop offset="0.186" stop-color="#FFAC31"/>
<stop offset="0.247" stop-color="#FF9D17"/>
<stop offset="0.283" stop-color="#FF980E"/>
<stop offset="0.403" stop-color="#FF563B"/>
<stop offset="0.467" stop-color="#FF3750"/>
<stop offset="0.71" stop-color="#F5156C"/>
<stop offset="0.782" stop-color="#EB0878"/>
<stop offset="0.86" stop-color="#E50080"/>
</radialGradient>
<radialGradient id="paint2_radial_2499_9560" cx="0" cy="0" r="1" gradientUnits="userSpaceOnUse" gradientTransform="translate(34.315 30.9179) scale(41.7455 40.3278)">
<stop offset="0.3" stop-color="#960E18"/>
<stop offset="0.351" stop-color="#B11927" stop-opacity="0.74"/>
<stop offset="0.435" stop-color="#DB293D" stop-opacity="0.343"/>
<stop offset="0.497" stop-color="#F5334B" stop-opacity="0.094"/>
<stop offset="0.53" stop-color="#FF3750" stop-opacity="0"/>
</radialGradient>
<radialGradient id="paint3_radial_2499_9560" cx="0" cy="0" r="1" gradientUnits="userSpaceOnUse" gradientTransform="translate(39.3475 5.27881) scale(30.2429 29.2158)">
<stop offset="0.132" stop-color="#FFF44F"/>
<stop offset="0.252" stop-color="#FFDC3E"/>
<stop offset="0.506" stop-color="#FF9D12"/>
<stop offset="0.526" stop-color="#FF980E"/>
</radialGradient>
<radialGradient id="paint4_radial_2499_9560" cx="0" cy="0" r="1" gradientUnits="userSpaceOnUse" gradientTransform="translate(29.6977 41.4521) scale(19.8769 19.2018)">
<stop offset="0.353" stop-color="#3A8EE6"/>
<stop offset="0.472" stop-color="#5C79F0"/>
<stop offset="0.669" stop-color="#9059FF"/>
<stop offset="1" stop-color="#C139E6"/>
</radialGradient>
<radialGradient id="paint5_radial_2499_9560" cx="0" cy="0" r="1" gradientUnits="userSpaceOnUse" gradientTransform="translate(36.6027 27.6135) rotate(-13.1462) scale(10.5191 11.9411)">
<stop offset="0.206" stop-color="#9059FF" stop-opacity="0"/>
<stop offset="0.278" stop-color="#8C4FF3" stop-opacity="0.064"/>
<stop offset="0.747" stop-color="#7716A8" stop-opacity="0.45"/>
<stop offset="0.975" stop-color="#6E008B" stop-opacity="0.6"/>
</radialGradient>
<radialGradient id="paint6_radial_2499_9560" cx="0" cy="0" r="1" gradientUnits="userSpaceOnUse" gradientTransform="translate(33.7879 12.7804) scale(14.2994 13.8138)">
<stop stop-color="#FFE226"/>
<stop offset="0.121" stop-color="#FFDB27"/>
<stop offset="0.295" stop-color="#FFC82A"/>
<stop offset="0.502" stop-color="#FFA930"/>
<stop offset="0.732" stop-color="#FF7E37"/>
<stop offset="0.792" stop-color="#FF7139"/>
</radialGradient>
<radialGradient id="paint7_radial_2499_9560" cx="0" cy="0" r="1" gradientUnits="userSpaceOnUse" gradientTransform="translate(45.0278 4.01941) scale(61.0091 58.9371)">
<stop offset="0.113" stop-color="#FFF44F"/>
<stop offset="0.456" stop-color="#FF980E"/>
<stop offset="0.622" stop-color="#FF5634"/>
<stop offset="0.716" stop-color="#FF3647"/>
<stop offset="0.904" stop-color="#E31587"/>
</radialGradient>
<radialGradient id="paint8_radial_2499_9560" cx="0" cy="0" r="1" gradientUnits="userSpaceOnUse" gradientTransform="translate(39.8951 7.29528) rotate(83.7659) scale(43.2135 29.3346)">
<stop stop-color="#FFF44F"/>
<stop offset="0.06" stop-color="#FFE847"/>
<stop offset="0.168" stop-color="#FFC830"/>
<stop offset="0.304" stop-color="#FF980E"/>
<stop offset="0.356" stop-color="#FF8B16"/>
<stop offset="0.455" stop-color="#FF672A"/>
<stop offset="0.57" stop-color="#FF3647"/>
<stop offset="0.737" stop-color="#E31587"/>
</radialGradient>
<radialGradient id="paint9_radial_2499_9560" cx="0" cy="0" r="1" gradientUnits="userSpaceOnUse" gradientTransform="translate(33.4515 17.8976) scale(38.0891 36.7955)">
<stop offset="0.137" stop-color="#FFF44F"/>
<stop offset="0.48" stop-color="#FF980E"/>
<stop offset="0.592" stop-color="#FF5634"/>
<stop offset="0.655" stop-color="#FF3647"/>
<stop offset="0.904" stop-color="#E31587"/>
</radialGradient>
<radialGradient id="paint10_radial_2499_9560" cx="0" cy="0" r="1" gradientUnits="userSpaceOnUse" gradientTransform="translate(43.5052 20.0512) scale(41.6882 40.2724)">
<stop offset="0.094" stop-color="#FFF44F"/>
<stop offset="0.231" stop-color="#FFE141"/>
<stop offset="0.509" stop-color="#FFAF1E"/>
<stop offset="0.626" stop-color="#FF980E"/>
</radialGradient>
<linearGradient id="paint11_linear_2499_9560" x1="50.7052" y1="16.0186" x2="23.3964" y2="44.287" gradientUnits="userSpaceOnUse">
<stop offset="0.167" stop-color="#FFF44F" stop-opacity="0.8"/>
<stop offset="0.266" stop-color="#FFF44F" stop-opacity="0.634"/>
<stop offset="0.489" stop-color="#FFF44F" stop-opacity="0.217"/>
<stop offset="0.6" stop-color="#FFF44F" stop-opacity="0"/>
</linearGradient>
<clipPath id="clip0_2499_9560">
<rect width="40" height="40" fill="white" transform="translate(15 10)"/>
</clipPath>
</defs>
</svg>
