<svg width="35" height="35" viewBox="0 0 35 35" fill="none" xmlns="http://www.w3.org/2000/svg">
<g clip-path="url(#clip0_2674_17230)">
<path d="M17.5005 4.70312C12.9956 4.70312 8.94189 5.97461 6.04004 7.97754C3.13477 9.98047 1.41211 12.6875 1.41211 15.627C1.41211 18.5664 3.13477 21.2666 6.04004 23.2764C8.93506 25.2793 12.9956 26.5508 17.5005 26.5508C21.9985 26.5508 26.0659 25.2793 28.9712 23.2764C31.8628 21.2666 33.5923 18.5664 33.5923 15.627C33.5923 12.6875 31.8628 9.98047 28.9712 7.97754C26.0659 5.97393 22.0054 4.70312 17.5005 4.70312ZM17.7056 6.15234L17.6919 7.43066C17.2817 7.42383 16.8716 7.44434 16.4614 7.46484L16.3794 6.18652C16.8237 6.1626 17.2612 6.15234 17.7056 6.15234ZM19.0044 6.19336C19.4419 6.21865 19.8862 6.25693 20.3237 6.31572L20.1665 7.58105C19.7632 7.5127 19.394 7.50586 18.9429 7.46484L19.0044 6.19336ZM15.0669 6.30273L15.2241 7.57422C14.814 7.61523 14.4038 7.69043 13.9937 7.75879L13.7681 6.50098C14.2192 6.41826 14.6909 6.35537 15.0669 6.30273ZM21.6362 6.5208C22.0669 6.6083 22.4976 6.69648 22.9214 6.82227L22.5933 8.05273C22.1968 7.9502 21.7866 7.86133 21.3833 7.78613L21.6362 6.5208ZM12.7837 8.01855C12.3804 8.12793 11.9634 8.25098 11.6011 8.36719L11.1704 7.15723C11.5806 7.02734 12.0796 6.87012 12.4897 6.75869C12.5991 7.1709 12.688 7.61523 12.7837 8.01855ZM24.1792 7.20508C24.5962 7.34863 25.02 7.49902 25.4233 7.67676L24.9175 8.85254C24.5415 8.68164 24.1519 8.55176 23.769 8.4082L24.1792 7.20508ZM9.96045 7.62207L10.4595 8.79102C10.0425 8.98242 9.72119 9.11914 9.35205 9.31738L8.75732 8.18262C9.19482 7.94336 9.52295 7.80664 9.96045 7.62207ZM26.6128 8.25098L26.6196 8.25781C27.0229 8.4834 27.4399 8.71582 27.7681 8.94141L27.064 10.0078C26.729 9.78223 26.3804 9.57715 26.0249 9.38574L26.0181 9.37891C26.23 9.00977 26.4146 8.62695 26.6128 8.25098ZM7.60889 8.85254C7.83447 9.21484 8.06006 9.57031 8.29932 9.92578C7.95752 10.1445 7.63623 10.3838 7.32178 10.6367L6.51855 9.64551C6.96631 9.16699 7.39697 8.94141 7.60889 8.85254ZM28.8481 9.74805C29.1899 10.0488 29.5386 10.3359 29.8394 10.6846L28.896 11.5459C28.6021 11.252 28.3081 10.9512 28.0278 10.7256L28.8481 9.74805ZM6.44336 11.4502C6.16377 11.751 5.89512 12.0791 5.69141 12.3662L4.65234 11.6211C4.98047 11.2041 5.20469 10.8896 5.53418 10.5615C5.78164 10.8281 6.1501 11.1699 6.44336 11.4502ZM18.2183 10.8555C19.1343 12.4756 19.9341 14.1777 20.7681 15.8457L18.2183 12.8311L16.3452 15.0391L15.272 14.3418C16.2563 13.1797 17.2339 12.0176 18.2183 10.8555ZM8.53174 11.6621C10.8423 12.8242 13.0435 14.4307 15.231 15.8389L10.562 13.8975L12.3667 19.7354L18.2183 20.166L24.0903 19.7354L23.4478 21.0615L18.2183 21.4443L11.4097 20.9453L8.53174 11.6621ZM27.9595 11.6689C26.7427 14.3008 25.4575 16.9121 24.1929 19.5234L25.936 13.8906L22.0259 15.5039L21.4448 14.3555L27.9595 11.6689ZM30.687 11.7578C30.9399 12.1475 31.1724 12.5781 31.3638 12.9609L30.2017 13.4941C30.0444 13.1318 29.8325 12.8037 29.6343 12.4687L30.687 11.7578ZM3.94824 12.8311L5.11035 13.3643C4.94014 13.7129 4.82461 14.082 4.72754 14.458L3.49912 14.1299C3.61875 13.5898 3.74248 13.2549 3.94824 12.8311ZM31.7944 14.3076C31.8696 14.7998 31.938 15.2646 31.938 15.7227L30.6597 15.7021C30.6323 15.3125 30.6187 14.9092 30.5435 14.5811C30.9604 14.4922 31.3774 14.3965 31.7944 14.3076ZM4.58398 15.5791C4.59082 15.9756 4.63115 16.3652 4.69336 16.7002L3.44238 16.9668C3.38154 16.4883 3.32891 15.9893 3.32617 15.5518C3.63379 15.5586 4.19775 15.5723 4.58398 15.5791ZM30.5298 16.8437L31.7739 17.1104C31.6714 17.582 31.4937 18.0742 31.3228 18.4502L30.1606 17.917C30.3179 17.541 30.4409 17.1719 30.5298 16.8437ZM5.02832 17.8076C5.19785 18.1631 5.38379 18.5117 5.5752 18.8193L4.51562 19.5303C4.2292 19.0928 4.03164 18.71 3.8252 18.2998C4.19434 18.1289 4.62021 17.958 5.02832 17.8076ZM29.5796 18.9355L30.6392 19.6533C30.3726 20.043 30.0513 20.4326 29.7847 20.7334C29.4565 20.4189 29.1694 20.1455 28.8481 19.8516V19.8447C29.1284 19.5371 29.3813 19.2158 29.5796 18.9355ZM7.15771 20.5762L6.34082 21.5537C5.98467 21.2598 5.62988 20.9111 5.34961 20.6104L6.29297 19.749C6.59033 20.0293 6.88428 20.3506 7.15771 20.5762ZM1.47363 20.3369C1.58984 21.2188 1.85645 22.0664 2.25977 22.873V21.4853C1.97266 21.1162 1.71289 20.7334 1.47363 20.3369ZM33.5239 20.3369C33.2231 20.8496 32.8677 21.3418 32.478 21.8066V23.3584C33.0317 22.4014 33.3872 21.3896 33.5239 20.3369ZM27.98 20.665L28.7798 21.6562C28.3628 21.9912 28.103 22.1826 27.6997 22.4492L26.9956 21.3828C27.3374 21.1641 27.6587 20.918 27.98 20.665ZM8.12158 21.3008C8.45654 21.5332 8.81201 21.7383 9.16748 21.9365L8.55225 23.0576C8.15576 22.8525 7.78662 22.5996 7.41064 22.3672L8.12158 21.3008ZM25.9497 21.998L26.5444 23.1328C26.1548 23.3447 25.7583 23.5225 25.3481 23.7002L24.8423 22.5244C25.2319 22.3672 25.6284 22.1689 25.9497 21.998ZM10.2544 22.4697C10.6235 22.6406 11.02 22.7637 11.4028 22.9141L10.9927 24.124C10.5757 23.9873 10.1655 23.8096 9.75537 23.6455L10.2544 22.4697ZM3.53809 22.8936V24.7939C3.88672 25.1973 4.26953 25.5938 4.68652 25.9629V23.8711C4.2832 23.5566 3.90039 23.2353 3.53809 22.8936ZM23.6938 22.9619L24.1108 24.1719C23.6802 24.3154 23.2153 24.4385 22.8394 24.5479L22.5112 23.3105C22.9351 23.2148 23.3247 23.0645 23.6938 22.9619ZM31.1997 23.1328C30.8374 23.4541 30.4614 23.7686 30.0581 24.0625V26.1885C30.4683 25.8398 30.8511 25.4707 31.1997 25.0879V23.1328ZM12.5786 23.2764C12.9751 23.3789 13.3784 23.4678 13.7817 23.5498L13.5425 24.8076C13.105 24.7256 12.6812 24.6162 12.2573 24.5068L12.5786 23.2764ZM21.3081 23.5771L21.5542 24.835C21.103 24.9102 20.6382 24.9922 20.2485 25.0332L20.0913 23.7686C20.5288 23.6934 20.9116 23.6318 21.3081 23.5771ZM15.0054 23.748C15.4155 23.8027 15.8257 23.8438 16.2427 23.8711L16.1538 25.1426C15.7163 25.1152 15.2788 25.0742 14.8413 25.0195L15.0054 23.748ZM18.8608 23.8779L18.9292 25.1562C18.4644 25.1904 17.9517 25.2109 17.4663 25.1904L17.4731 23.9189C17.938 23.9189 18.396 23.9053 18.8608 23.8779ZM5.96484 24.7529V26.9746C6.40234 27.2822 6.89111 27.583 7.29443 27.8086V25.5049C6.83301 25.2725 6.38867 25.0195 5.96484 24.7529ZM28.7798 24.9102C28.3491 25.1699 27.9048 25.4092 27.4399 25.6348V27.9521C27.9116 27.6992 28.356 27.4326 28.7798 27.1523V24.9102ZM8.57275 26.0996V28.458C9.03076 28.6631 9.50928 28.8613 10.0015 29.0391V26.6397C9.51611 26.4756 9.0376 26.2979 8.57275 26.0996ZM26.1616 26.209C25.6968 26.3936 25.2183 26.5645 24.7329 26.7217V29.1279C25.2251 28.957 25.7036 28.7725 26.1616 28.5742V26.209ZM11.2798 27.0225V29.4492C11.731 29.5791 12.1958 29.6953 12.6675 29.7978V27.3506C12.1958 27.2549 11.731 27.1455 11.2798 27.0225ZM23.4546 27.0908C23.0034 27.207 22.5386 27.3096 22.0669 27.3984V29.8457C22.5386 29.75 23.0034 29.6475 23.4546 29.5244V27.0908ZM13.9458 27.5693V30.0303C14.4106 30.1055 14.8892 30.1602 15.3745 30.208V27.7334C14.8892 27.6924 14.4106 27.6377 13.9458 27.5693ZM20.8022 27.6035C20.2964 27.6719 19.7905 27.7266 19.271 27.7607V30.2354C19.7905 30.1943 20.2964 30.1396 20.8022 30.0713V27.6035ZM16.6528 27.8086V30.2832C17.1313 30.3037 17.5073 30.2969 17.9858 30.2969V27.8223C17.5415 27.8223 17.0425 27.8291 16.6528 27.8086Z" fill="black"/>
</g>
<defs>
<clipPath id="clip0_2674_17230">
<rect width="35" height="35" fill="white"/>
</clipPath>
</defs>
</svg>
