<svg width="200" height="70" viewBox="0 0 200 70" fill="none" xmlns="http://www.w3.org/2000/svg">
<g clip-path="url(#clip0_2472_9935)">
<path d="M184.073 0.0002275H15.9357C15.3229 0.0002275 14.7173 0.0002275 14.1061 0.0037275C13.5944 0.0072275 13.0868 0.017395 12.5702 0.0259525C11.4479 0.0397807 10.3283 0.143161 9.22098 0.335195C8.11526 0.53141 7.04417 0.90133 6.04395 1.43244C5.04496 1.96805 4.13214 2.66402 3.33863 3.4951C2.54095 4.32384 1.87602 5.28176 1.36942 6.33201C0.861412 7.38017 0.50916 8.50337 0.324826 9.66282C0.13874 10.8208 0.0386054 11.9921 0.0253209 13.1663C0.0098108 13.7029 0.00817288 14.2412 0 14.7778V55.2278C0.00817288 55.7711 0.0098108 56.2975 0.0253209 56.8411C0.0386094 58.0152 0.138744 59.1865 0.324826 60.3444C0.508651 61.5045 0.860924 62.6284 1.36942 63.6769C1.87579 64.7238 2.54081 65.6778 3.33863 66.502C4.12913 67.3367 5.04254 68.0332 6.04395 68.5647C7.04417 69.0972 8.11513 69.4694 9.22098 69.6686C10.3284 69.8591 11.448 69.9625 12.5702 69.978C13.0868 69.9899 13.5944 69.9967 14.1061 69.9967C14.7173 70.0002 15.3229 70.0002 15.9357 70.0002H184.073C184.674 70.0002 185.284 70.0002 185.885 69.9967C186.394 69.9967 186.917 69.9899 187.426 69.978C188.546 69.9633 189.663 69.8599 190.768 69.6686C191.878 69.468 192.953 69.0959 193.958 68.5647C194.958 68.0329 195.871 67.3365 196.661 66.502C197.456 65.6746 198.123 64.7213 198.636 63.6769C199.14 62.6276 199.489 61.5039 199.67 60.3444C199.857 59.1863 199.96 58.0153 199.98 56.8411C199.987 56.2975 199.987 55.7711 199.987 55.2278C200 54.592 200 53.9597 200 53.3136V16.6885C200 16.0476 200 15.4118 199.987 14.7778C199.987 14.2412 199.987 13.7029 199.98 13.1662C199.96 11.992 199.857 10.8209 199.67 9.66275C199.489 8.50397 199.14 7.38086 198.636 6.33194C197.604 4.22682 195.968 2.51327 193.958 1.43229C192.953 0.90247 191.878 0.532648 190.768 0.335037C189.664 0.142157 188.546 0.0387411 187.426 0.0257075C186.917 0.0171675 186.394 0.0069125 185.885 0.0035C185.284 0 184.674 0.0002275 184.073 0.0002275Z" fill="#A6A6A6"/>
<path d="M14.1141 68.4687C13.6049 68.4687 13.108 68.4619 12.6027 68.45C11.5561 68.4357 10.5119 68.3403 9.47875 68.1646C8.51537 67.9909 7.58211 67.6677 6.70976 67.2058C5.84542 66.7477 5.05706 66.147 4.3749 65.4267C3.68286 64.715 3.10671 63.8894 2.66927 62.9828C2.22702 62.0704 1.92095 61.0923 1.76173 60.0827C1.58979 58.9979 1.49676 57.901 1.48345 56.8015C1.47286 56.4324 1.45898 55.2036 1.45898 55.2036V14.7776C1.45898 14.7776 1.47376 13.5676 1.48354 13.2121C1.49628 12.1143 1.58877 11.0191 1.76019 9.93603C1.91971 8.92369 2.22601 7.94281 2.6685 7.02735C3.10433 6.1214 3.67728 5.29526 4.36515 4.58094C5.05225 3.85984 5.84313 3.25606 6.70895 2.79162C7.57929 2.33116 8.51078 2.01028 9.47221 1.83972C10.5088 1.66221 11.5566 1.56624 12.6068 1.55262L14.1149 1.53125H185.877L187.403 1.55348C188.443 1.56642 189.482 1.66154 190.509 1.83801C191.48 2.01071 192.421 2.33383 193.301 2.79674C195.036 3.73273 196.447 5.21354 197.338 7.03162C197.773 7.94076 198.075 8.91364 198.232 9.91723C198.406 11.0092 198.503 12.113 198.523 13.2198C198.528 13.7154 198.528 14.2478 198.528 14.7776C198.541 15.4338 198.541 16.0585 198.541 16.6882V53.3134C198.541 53.9492 198.541 54.5695 198.528 55.195C198.528 55.7641 198.528 56.2854 198.521 56.822C198.502 57.909 198.406 58.9931 198.235 60.0656C198.079 61.0825 197.775 62.0681 197.333 62.9881C196.892 63.8848 196.319 64.7032 195.635 65.4131C194.953 66.1372 194.163 66.7414 193.297 67.2024C192.419 67.6679 191.479 67.9923 190.509 68.1646C189.476 68.3413 188.431 68.4367 187.385 68.45C186.895 68.4619 186.383 68.4687 185.885 68.4687L184.073 68.4722L14.1141 68.4687Z" fill="black"/>
<path d="M41.3974 35.5266C41.4154 34.0659 41.786 32.6337 42.4746 31.3633C43.1632 30.0929 44.1476 29.0255 45.3361 28.2604C44.5811 27.1314 43.585 26.2023 42.4271 25.5468C41.2691 24.8913 39.9812 24.5276 38.6655 24.4845C35.8589 24.1761 33.138 26.243 31.7078 26.243C30.25 26.243 28.048 24.5151 25.6768 24.5662C24.143 24.6181 22.6483 25.0851 21.3381 25.9217C20.028 26.7583 18.9472 27.936 18.201 29.34C14.9686 35.1997 17.3797 43.8116 20.476 48.5481C22.0252 50.8675 23.8357 53.4583 26.2048 53.3664C28.523 53.2657 29.3888 51.8186 32.1872 51.8186C34.9595 51.8186 35.7719 53.3664 38.189 53.308C40.6766 53.2657 42.2439 50.9783 43.7387 48.637C44.8518 46.9844 45.7083 45.1578 46.2765 43.2251C44.8313 42.5851 43.598 41.5138 42.7303 40.1447C41.8627 38.7757 41.3991 37.1696 41.3974 35.5266Z" fill="white"/>
<path d="M36.8324 21.3693C38.1887 19.6645 38.8569 17.4731 38.6951 15.2607C36.6229 15.4886 34.7088 16.5256 33.3341 18.1651C32.662 18.966 32.1473 19.8977 31.8193 20.9071C31.4913 21.9164 31.3565 22.9836 31.4226 24.0475C32.4591 24.0587 33.4845 23.8234 34.4215 23.3595C35.3586 22.8956 36.1829 22.2151 36.8324 21.3693Z" fill="white"/>
<path d="M70.7019 47.4944H62.7907L60.8909 53.3682H57.54L65.0333 31.6367H68.5148L76.0081 53.3682H72.6001L70.7019 47.4944ZM63.6101 44.784H69.881L66.7896 35.2513H66.7031L63.6101 44.784Z" fill="white"/>
<path d="M92.1913 45.447C92.1913 50.3706 89.6745 53.5339 85.8764 53.5339C84.9143 53.5866 83.9575 53.3546 83.1155 52.8643C82.2735 52.3741 81.5803 51.6455 81.1154 50.7619H81.0435V58.6096H77.9375V37.5242H80.944V40.1594H81.0011C81.4874 39.2801 82.1923 38.5553 83.0407 38.062C83.8891 37.5688 84.8494 37.3256 85.8193 37.3584C89.6597 37.3584 92.1913 40.5371 92.1913 45.447ZM88.9988 45.447C88.9988 42.2393 87.4156 40.1304 84.9999 40.1304C82.6268 40.1304 81.0305 42.2837 81.0305 45.447C81.0305 48.6394 82.6268 50.7774 84.9999 50.7774C87.4156 50.7774 88.9988 48.6838 88.9988 45.447Z" fill="white"/>
<path d="M108.846 45.447C108.846 50.3706 106.329 53.5339 102.531 53.5339C101.569 53.5866 100.612 53.3546 99.7698 52.8643C98.9277 52.3741 98.2346 51.6455 97.7697 50.7619H97.6978V58.6096H94.5918V37.5242H97.5982V40.1594H97.6554C98.1417 39.2801 98.8465 38.5553 99.6949 38.062C100.543 37.5688 101.504 37.3256 102.474 37.3584C106.314 37.3584 108.846 40.5371 108.846 45.447ZM105.653 45.447C105.653 42.2393 104.07 40.1304 101.654 40.1304C99.2811 40.1304 97.6848 42.2837 97.6848 45.447C97.6848 48.6394 99.2811 50.7773 101.654 50.7773C104.07 50.7773 105.653 48.6838 105.653 45.447Z" fill="white"/>
<path d="M119.853 47.3133C120.083 49.4684 122.083 50.8833 124.815 50.8833C127.433 50.8833 129.317 49.4683 129.317 47.5252C129.317 45.8384 128.181 44.8284 125.491 44.1362L122.801 43.4578C118.99 42.4939 117.221 40.6277 117.221 37.5994C117.221 33.8499 120.341 31.2744 124.773 31.2744C129.158 31.2744 132.165 33.8499 132.266 37.5994H129.131C128.943 35.4307 127.231 34.1216 124.729 34.1216C122.226 34.1216 120.514 35.4461 120.514 37.3738C120.514 38.9102 121.608 39.8142 124.283 40.5063L126.57 41.0942C130.828 42.1486 132.597 43.9397 132.597 47.1184C132.597 51.184 129.504 53.7304 124.585 53.7304C119.982 53.7304 116.875 51.2438 116.674 47.3132L119.853 47.3133Z" fill="white"/>
<path d="M139.3 33.7744V37.5239H142.178V40.0994H139.3V48.834C139.3 50.1909 139.877 50.8232 141.141 50.8232C141.483 50.817 141.824 50.7919 142.163 50.748V53.3081C141.594 53.4193 141.016 53.4697 140.438 53.4584C137.374 53.4584 136.18 52.2536 136.18 49.1809V40.0994H133.979V37.5239H136.18V33.7744H139.3Z" fill="white"/>
<path d="M143.845 45.4468C143.845 40.4617 146.649 37.3291 151.021 37.3291C155.409 37.3291 158.2 40.4616 158.2 45.4468C158.2 50.4456 155.423 53.5644 151.021 53.5644C146.621 53.5644 143.845 50.4455 143.845 45.4468ZM155.035 45.4468C155.035 42.0271 153.538 40.0088 151.021 40.0088C148.505 40.0088 147.009 42.0425 147.009 45.4468C147.009 48.8801 148.505 50.8831 151.021 50.8831C153.538 50.8831 155.035 48.8801 155.035 45.4468Z" fill="white"/>
<path d="M160.761 37.524H163.723V40.2208H163.795C163.995 39.3785 164.467 38.6342 165.13 38.1129C165.792 37.5916 166.606 37.3251 167.435 37.3582C167.793 37.3569 168.15 37.3976 168.499 37.4796V40.5216C168.047 40.377 167.576 40.3106 167.103 40.325C166.652 40.3059 166.202 40.3892 165.785 40.5692C165.367 40.7493 164.992 41.0218 164.684 41.3681C164.377 41.7144 164.144 42.1263 164.003 42.5755C163.862 43.0246 163.816 43.5005 163.867 43.9703V53.368H160.761L160.761 37.524Z" fill="white"/>
<path d="M182.819 48.7144C182.401 51.5906 179.726 53.5644 176.303 53.5644C171.901 53.5644 169.169 50.4763 169.169 45.522C169.169 40.5522 171.916 37.3291 176.173 37.3291C180.359 37.3291 182.992 40.3403 182.992 45.1443V46.2585H172.304V46.4551C172.255 47.0382 172.325 47.6256 172.509 48.1783C172.693 48.731 172.987 49.2364 173.372 49.6609C173.757 50.0853 174.224 50.4191 174.742 50.6402C175.26 50.8612 175.816 50.9644 176.375 50.9429C177.109 51.0149 177.846 50.8369 178.475 50.4354C179.105 50.0338 179.594 49.4302 179.869 48.7143L182.819 48.7144ZM172.319 43.9856H179.884C179.912 43.4613 179.836 42.9366 179.661 42.4445C179.486 41.9524 179.216 41.5035 178.867 41.1259C178.519 40.7483 178.1 40.4502 177.636 40.2503C177.172 40.0504 176.674 39.9531 176.173 39.9644C175.667 39.9612 175.165 40.0629 174.697 40.2637C174.229 40.4645 173.804 40.7604 173.446 41.1343C173.087 41.5081 172.803 41.9526 172.61 42.442C172.417 42.9314 172.318 43.456 172.319 43.9856Z" fill="white"/>
<path d="M63.2204 15.2794C63.8715 15.2305 64.525 15.3335 65.1335 15.581C65.7421 15.8285 66.2906 16.2144 66.7395 16.7107C67.1884 17.207 67.5265 17.8015 67.7294 18.4512C67.9323 19.101 67.995 19.7897 67.9129 20.4679C67.9129 23.8038 66.1909 25.7214 63.2204 25.7214H59.6182V15.2794H63.2204ZM61.1671 24.2447H63.0473C63.5127 24.2738 63.9783 24.1939 64.4104 24.0108C64.8425 23.8278 65.2302 23.5461 65.5453 23.1864C65.8603 22.8266 66.0947 22.3979 66.2316 21.9313C66.3684 21.4647 66.4041 20.972 66.3362 20.4892C66.3992 20.0082 66.3598 19.5186 66.2209 19.0555C66.082 18.5923 65.847 18.167 65.5326 17.8102C65.2183 17.4533 64.8325 17.1736 64.4028 16.9912C63.9732 16.8088 63.5103 16.7281 63.0473 16.755H61.1671V24.2447Z" fill="white"/>
<path d="M69.6623 21.7771C69.615 21.2593 69.6716 20.7368 69.8284 20.2432C69.9852 19.7495 70.2389 19.2957 70.573 18.9107C70.9072 18.5258 71.3146 18.2182 71.7689 18.0077C72.2233 17.7972 72.7146 17.6885 73.2115 17.6885C73.7083 17.6885 74.1997 17.7972 74.654 18.0077C75.1084 18.2182 75.5157 18.5258 75.8499 18.9107C76.184 19.2957 76.4377 19.7495 76.5945 20.2432C76.7514 20.7368 76.8079 21.2593 76.7606 21.7771C76.8088 22.2955 76.7529 22.8187 76.5965 23.3132C76.4401 23.8076 76.1866 24.2623 75.8523 24.648C75.5181 25.0337 75.1104 25.3419 74.6556 25.5529C74.2008 25.7638 73.7089 25.8728 73.2115 25.8728C72.714 25.8728 72.2221 25.7638 71.7673 25.5529C71.3125 25.3419 70.9048 25.0337 70.5706 24.648C70.2363 24.2623 69.9828 23.8076 69.8264 23.3132C69.67 22.8187 69.6141 22.2955 69.6623 21.7771ZM75.2329 21.7771C75.2329 20.069 74.5 19.0701 73.2139 19.0701C71.9229 19.0701 71.1966 20.069 71.1966 21.7772C71.1966 23.499 71.9229 24.4902 73.2139 24.4902C74.5001 24.4901 75.2329 23.4921 75.2329 21.7771Z" fill="white"/>
<path d="M86.1963 25.7209H84.6555L83.1 19.9172H82.9825L81.4336 25.7209H79.9075L77.833 17.8408H79.3395L80.6877 23.8538H80.7987L82.346 17.8408H83.7709L85.3182 23.8538H85.4357L86.7773 17.8408H88.2626L86.1963 25.7209Z" fill="white"/>
<path d="M90.0078 17.8405H91.4376V19.0924H91.5486C91.7369 18.6427 92.0544 18.2658 92.457 18.0142C92.8596 17.7625 93.3271 17.6486 93.7945 17.6884C94.1607 17.6596 94.5283 17.7174 94.8703 17.8576C95.2123 17.9977 95.5197 18.2167 95.7699 18.4982C96.02 18.7796 96.2065 19.1164 96.3155 19.4836C96.4245 19.8508 96.4532 20.239 96.3994 20.6193V25.7206H94.9141V21.0099C94.9141 19.7435 94.3886 19.1137 93.2901 19.1137C93.0415 19.1016 92.7933 19.1459 92.5626 19.2436C92.3318 19.3413 92.124 19.4901 91.9533 19.6798C91.7826 19.8695 91.6531 20.0955 91.5737 20.3425C91.4942 20.5895 91.4668 20.8515 91.4931 21.1107V25.7207H90.0078L90.0078 17.8405Z" fill="white"/>
<path d="M98.7656 14.7646H100.251V25.7209H98.7656V14.7646Z" fill="white"/>
<path d="M102.316 21.7773C102.268 21.2594 102.325 20.7369 102.482 20.2432C102.639 19.7496 102.892 19.2957 103.227 18.9107C103.561 18.5258 103.968 18.2182 104.423 18.0077C104.877 17.7972 105.368 17.6885 105.865 17.6885C106.362 17.6885 106.853 17.7972 107.308 18.0077C107.762 18.2182 108.17 18.5258 108.504 18.9107C108.838 19.2957 109.092 19.7496 109.248 20.2432C109.405 20.7369 109.462 21.2594 109.415 21.7773C109.463 22.2957 109.407 22.8189 109.25 23.3133C109.094 23.8078 108.84 24.2624 108.506 24.6481C108.172 25.0339 107.764 25.3421 107.309 25.553C106.855 25.7639 106.363 25.8729 105.865 25.8729C105.368 25.8729 104.876 25.7639 104.421 25.553C103.966 25.3421 103.558 25.0339 103.224 24.6481C102.89 24.2624 102.636 23.8078 102.48 23.3133C102.323 22.8189 102.267 22.2957 102.316 21.7773ZM107.886 21.7773C107.886 20.0692 107.153 19.0703 105.867 19.0703C104.576 19.0703 103.85 20.0692 103.85 21.7773C103.85 23.4991 104.576 24.4903 105.867 24.4903C107.153 24.4903 107.886 23.4923 107.886 21.7773Z" fill="white"/>
<path d="M110.979 23.4922C110.979 22.0737 111.987 21.256 113.778 21.1398L115.816 21.0167V20.3365C115.816 19.5043 115.291 19.0343 114.276 19.0343C113.446 19.0343 112.872 19.353 112.707 19.9102H111.269C111.421 18.5566 112.637 17.6885 114.344 17.6885C116.231 17.6885 117.295 18.672 117.295 20.3365V25.7207H115.865V24.6133H115.748C115.509 25.0105 115.174 25.3344 114.777 25.5517C114.38 25.7691 113.935 25.8722 113.487 25.8505C113.171 25.8849 112.852 25.8496 112.55 25.7469C112.248 25.6442 111.969 25.4763 111.733 25.2541C111.497 25.0319 111.307 24.7603 111.178 24.4569C111.048 24.1534 110.98 23.8248 110.979 23.4922ZM115.816 22.8188V22.16L113.978 22.2831C112.942 22.3557 112.472 22.7248 112.472 23.4195C112.472 24.1288 113.06 24.5415 113.868 24.5415C114.104 24.5666 114.343 24.5415 114.571 24.4679C114.798 24.3942 115.009 24.2734 115.191 24.1127C115.372 23.952 115.522 23.7546 115.629 23.5323C115.737 23.3101 115.8 23.0674 115.816 22.8188Z" fill="white"/>
<path d="M119.247 21.7775C119.247 19.2875 120.47 17.7101 122.371 17.7101C122.841 17.6874 123.308 17.8054 123.717 18.0502C124.126 18.295 124.459 18.6566 124.679 19.0926H124.79V14.7646H126.275V25.7209H124.852V24.4759H124.734C124.498 24.9091 124.152 25.2661 123.736 25.5085C123.319 25.7508 122.847 25.8692 122.371 25.8508C120.457 25.8509 119.247 24.2735 119.247 21.7775ZM120.781 21.7775C120.781 23.4489 121.534 24.4546 122.792 24.4546C124.044 24.4546 124.818 23.4344 124.818 21.7843C124.818 20.142 124.036 19.1072 122.792 19.1072C121.542 19.1072 120.781 20.1198 120.781 21.7775Z" fill="white"/>
<path d="M132.42 21.7771C132.373 21.2593 132.429 20.7368 132.586 20.2432C132.743 19.7495 132.997 19.2957 133.331 18.9107C133.665 18.5258 134.072 18.2182 134.527 18.0077C134.981 17.7972 135.472 17.6885 135.969 17.6885C136.466 17.6885 136.957 17.7972 137.412 18.0077C137.866 18.2182 138.273 18.5258 138.608 18.9107C138.942 19.2957 139.195 19.7495 139.352 20.2432C139.509 20.7368 139.566 21.2593 139.518 21.7771C139.567 22.2955 139.511 22.8187 139.354 23.3132C139.198 23.8076 138.944 24.2623 138.61 24.648C138.276 25.0337 137.868 25.3419 137.413 25.5529C136.959 25.7638 136.467 25.8728 135.969 25.8728C135.472 25.8728 134.98 25.7638 134.525 25.5529C134.07 25.3419 133.663 25.0337 133.328 24.648C132.994 24.2623 132.741 23.8076 132.584 23.3132C132.428 22.8187 132.372 22.2955 132.42 21.7771ZM137.991 21.7771C137.991 20.069 137.258 19.0701 135.972 19.0701C134.681 19.0701 133.954 20.069 133.954 21.7772C133.954 23.499 134.681 24.4902 135.972 24.4902C137.258 24.4901 137.991 23.4921 137.991 21.7771Z" fill="white"/>
<path d="M141.512 17.8405H142.942V19.0924H143.053C143.241 18.6427 143.558 18.2658 143.961 18.0142C144.364 17.7625 144.831 17.6486 145.298 17.6884C145.665 17.6596 146.032 17.7174 146.374 17.8576C146.716 17.9977 147.024 18.2167 147.274 18.4982C147.524 18.7796 147.71 19.1164 147.819 19.4836C147.928 19.8508 147.957 20.239 147.903 20.6193V25.7206H146.418V21.0099C146.418 19.7435 145.892 19.1137 144.794 19.1137C144.545 19.1016 144.297 19.1459 144.066 19.2436C143.836 19.3413 143.628 19.4901 143.457 19.6798C143.287 19.8695 143.157 20.0955 143.078 20.3425C142.998 20.5895 142.971 20.8515 142.997 21.1107V25.7207H141.512V17.8405Z" fill="white"/>
<path d="M156.296 15.8789V17.8767H157.926V19.1867H156.296V23.2387C156.296 24.0641 156.621 24.4255 157.36 24.4255C157.549 24.4249 157.738 24.4129 157.926 24.3896V25.685C157.66 25.735 157.389 25.7616 157.119 25.7645C155.467 25.7645 154.809 25.1561 154.809 23.6368V19.1866H153.614V17.8766H154.809V15.8789H156.296Z" fill="white"/>
<path d="M159.955 14.7646H161.427V19.1072H161.545C161.742 18.6534 162.069 18.2743 162.479 18.0217C162.89 17.7691 163.365 17.6552 163.84 17.6956C164.204 17.6748 164.568 17.7385 164.906 17.8821C165.244 18.0256 165.548 18.2456 165.795 18.5262C166.043 18.8067 166.228 19.1411 166.338 19.5053C166.448 19.8696 166.48 20.2547 166.431 20.6333V25.721H164.945V21.017C164.945 19.7583 164.385 19.1208 163.335 19.1208C163.08 19.0989 162.823 19.1357 162.583 19.2285C162.343 19.3213 162.125 19.468 161.944 19.6583C161.764 19.8486 161.625 20.0779 161.538 20.3302C161.451 20.5824 161.418 20.8515 161.44 21.1186V25.7209H159.955L159.955 14.7646Z" fill="white"/>
<path d="M175.092 23.5931C174.89 24.3133 174.453 24.9363 173.857 25.3531C173.261 25.7698 172.544 25.9538 171.831 25.8729C171.335 25.8866 170.842 25.7872 170.387 25.5815C169.931 25.3758 169.524 25.0689 169.193 24.6819C168.863 24.2949 168.616 23.8371 168.471 23.3405C168.326 22.8438 168.287 22.32 168.354 21.8056C168.288 21.2895 168.329 20.7646 168.474 20.2664C168.618 19.7683 168.863 19.3084 169.192 18.918C169.521 18.5277 169.927 18.2159 170.381 18.0038C170.835 17.7916 171.327 17.6842 171.824 17.6886C173.918 17.6886 175.182 19.1866 175.182 21.6611V22.2038H169.867V22.2909C169.844 22.5801 169.879 22.8712 169.969 23.1455C170.06 23.4198 170.204 23.6713 170.393 23.8838C170.581 24.0964 170.81 24.2653 171.065 24.3797C171.32 24.4942 171.595 24.5516 171.872 24.5484C172.227 24.5931 172.587 24.5261 172.906 24.356C173.225 24.1859 173.488 23.9203 173.662 23.5931L175.092 23.5931ZM169.867 21.0536H173.669C173.687 20.7891 173.653 20.5235 173.568 20.2737C173.483 20.024 173.349 19.7956 173.174 19.6034C173 19.4111 172.789 19.2592 172.555 19.1574C172.321 19.0556 172.069 19.0061 171.816 19.0122C171.559 19.0088 171.304 19.0593 171.066 19.1607C170.828 19.2621 170.612 19.4124 170.431 19.6027C170.249 19.7929 170.106 20.0193 170.009 20.2685C169.912 20.5177 169.864 20.7846 169.867 21.0536Z" fill="white"/>
</g>
<defs>
<clipPath id="clip0_2472_9935">
<rect width="200" height="70" fill="white"/>
</clipPath>
</defs>
</svg>
