<svg width="20" height="20" viewBox="0 0 20 20" fill="none" xmlns="http://www.w3.org/2000/svg">
<g clip-path="url(#clip0_2957_18063)">
<path fill-rule="evenodd" clip-rule="evenodd" d="M5 1.66699C4.33696 1.66699 3.70107 1.93038 3.23223 2.39923C2.76339 2.86807 2.5 3.50395 2.5 4.16699V15.8337C2.5 16.4967 2.76339 17.1326 3.23223 17.6014C3.70107 18.0703 4.33696 18.3337 5 18.3337H10C10.663 18.3337 11.2989 18.0703 11.7678 17.6014C12.2366 17.1326 12.5 16.4967 12.5 15.8337V4.16699C12.5 3.50395 12.2366 2.86807 11.7678 2.39923C11.2989 1.93038 10.663 1.66699 10 1.66699H5ZM13.5775 6.07783C13.7338 5.9216 13.9457 5.83384 14.1667 5.83384C14.3876 5.83384 14.5996 5.9216 14.7558 6.07783L18.0892 9.41116C18.2454 9.56743 18.3332 9.77935 18.3332 10.0003C18.3332 10.2213 18.2454 10.4332 18.0892 10.5895L14.7558 13.9228C14.5987 14.0746 14.3882 14.1586 14.1697 14.1567C13.9512 14.1548 13.7422 14.0672 13.5877 13.9127C13.4331 13.7582 13.3455 13.5492 13.3436 13.3307C13.3417 13.1122 13.4257 12.9017 13.5775 12.7445L15.4883 10.8337H8.33333C8.11232 10.8337 7.90036 10.7459 7.74408 10.5896C7.5878 10.4333 7.5 10.2213 7.5 10.0003C7.5 9.77931 7.5878 9.56735 7.74408 9.41107C7.90036 9.25479 8.11232 9.16699 8.33333 9.16699H15.4883L13.5775 7.25616C13.4213 7.09988 13.3335 6.88796 13.3335 6.66699C13.3335 6.44602 13.4213 6.2341 13.5775 6.07783Z" fill="url(#paint0_linear_2957_18063)"/>
</g>
<defs>
<linearGradient id="paint0_linear_2957_18063" x1="10.4166" y1="1.66699" x2="10.4166" y2="18.3337" gradientUnits="userSpaceOnUse">
<stop stop-color="#9C6CFE"/>
<stop offset="1" stop-color="#7A41DC"/>
</linearGradient>
<clipPath id="clip0_2957_18063">
<rect width="20" height="20" fill="white"/>
</clipPath>
</defs>
</svg>
