<svg width="240" height="60" viewBox="0 0 240 60" fill="none" xmlns="http://www.w3.org/2000/svg">
<g clip-path="url(#clip0_2471_9867)">
<path d="M225.349 0.000195H14.6593C14.0955 0.000195 13.5385 0.000195 12.9762 0.003195C12.5055 0.006195 12.0385 0.01491 11.5633 0.022245C10.5309 0.0340977 9.50096 0.122709 8.48238 0.28731C7.46523 0.455494 6.47994 0.772569 5.55983 1.22781C4.64085 1.6869 3.80116 2.28345 3.07121 2.9958C2.33742 3.70615 1.72575 4.52722 1.25973 5.42744C0.792413 6.32586 0.468376 7.2886 0.298807 8.28242C0.127627 9.27497 0.0355131 10.279 0.0232927 11.2854C0.00902495 11.7453 0.00751823 12.2067 0 12.6667V47.3381C0.00751823 47.8039 0.00902495 48.2551 0.0232773 48.721C0.0355015 49.7273 0.127615 50.7313 0.298792 51.7238C0.467892 52.7182 0.791948 53.6815 1.25971 54.5803C1.72553 55.4776 2.33729 56.2953 3.07121 57.0017C3.79839 57.7172 4.63863 58.3142 5.55983 58.7698C6.47993 59.2262 7.46511 59.5452 8.48238 59.716C9.50114 59.8792 10.531 59.9679 11.5633 59.9812C12.0385 59.9914 12.5055 59.9972 12.9762 59.9972C13.5385 60.0002 14.0955 60.0002 14.6593 60.0002H225.349C225.902 60.0002 226.463 60.0002 227.016 59.9972C227.484 59.9972 227.965 59.9914 228.433 59.9812C229.463 59.9686 230.491 59.8799 231.508 59.716C232.528 59.544 233.517 59.2251 234.442 58.7698C235.362 58.3139 236.202 57.717 236.928 57.0017C237.66 56.2925 238.273 55.4754 238.745 54.5803C239.209 53.6808 239.53 52.7176 239.697 51.7238C239.868 50.7312 239.963 49.7274 239.982 48.721C239.988 48.2551 239.988 47.8039 239.988 47.3381C240 46.7932 240 46.2512 240 45.6974V14.3044C240 13.7551 240 13.2102 239.988 12.6667C239.988 12.2067 239.988 11.7453 239.982 11.2854C239.963 10.2788 239.868 9.27505 239.697 8.28236C239.53 7.28912 239.209 6.32645 238.745 5.42738C237.796 3.62299 236.291 2.15423 234.442 1.22768C233.517 0.773546 232.528 0.456556 231.508 0.287175C230.491 0.121849 229.463 0.0332067 228.433 0.022035C227.965 0.014715 227.484 0.005925 227.016 0.003C226.463 0 225.902 0.000195 225.349 0.000195Z" fill="#A6A6A6"/>
<path d="M12.9833 58.6875C12.5148 58.6875 12.0576 58.6816 11.5929 58.6714C10.6301 58.6592 9.6696 58.5774 8.71918 58.4268C7.83297 58.2779 6.97447 58.0009 6.17199 57.6049C5.37688 57.2123 4.65167 56.6974 4.02415 56.08C3.38754 55.47 2.85754 54.7624 2.45514 53.9853C2.04831 53.2032 1.76676 52.3648 1.62029 51.4995C1.46213 50.5697 1.37655 49.6295 1.36431 48.687C1.35456 48.3706 1.3418 47.3173 1.3418 47.3173V12.6665C1.3418 12.6665 1.35539 11.6294 1.36438 11.3247C1.37611 10.3837 1.46118 9.44498 1.61888 8.51659C1.76561 7.64887 2.04738 6.80812 2.45443 6.02344C2.85535 5.24691 3.38241 4.53879 4.01518 3.92652C4.64724 3.30843 5.37477 2.79091 6.17124 2.39281C6.97187 1.99814 7.82875 1.7231 8.71317 1.5769C9.66671 1.42475 10.6306 1.34249 11.5967 1.33082L12.984 1.3125H227.008L228.412 1.33155C229.369 1.34265 230.324 1.42417 231.269 1.57543C232.162 1.72346 233.028 2.00042 233.838 2.39721C235.433 3.19948 236.732 4.46874 237.551 6.0271C237.951 6.80637 238.229 7.64026 238.374 8.50048C238.533 9.43649 238.622 10.3826 238.641 11.3313C238.645 11.7561 238.645 12.2124 238.645 12.6665C238.657 13.229 238.657 13.7644 238.657 14.3042V45.6972C238.657 46.2421 238.657 46.7739 238.645 47.31C238.645 47.7978 238.645 48.2446 238.639 48.7045C238.621 49.6363 238.533 50.5655 238.376 51.4848C238.233 52.3564 237.953 53.2013 237.546 53.9898C237.141 54.7584 236.614 55.4599 235.985 56.0683C235.357 56.689 234.63 57.2069 233.833 57.6021C233.026 58.0011 232.161 58.2791 231.269 58.4268C230.318 58.5782 229.358 58.66 228.395 58.6714C227.945 58.6816 227.473 58.6875 227.015 58.6875L225.349 58.6905L12.9833 58.6875Z" fill="black"/>
<path d="M38.0815 30.4505C38.098 29.1985 38.4389 27.9709 39.0724 26.882C39.7059 25.7931 40.6114 24.8782 41.7046 24.2224C41.0101 23.2547 40.0939 22.4583 39.0287 21.8964C37.9635 21.3346 36.7787 21.0228 35.5683 20.9859C32.9866 20.7215 30.4836 22.4931 29.168 22.4931C27.8269 22.4931 25.8013 21.0121 23.62 21.0559C22.2091 21.1004 20.8341 21.5007 19.6289 22.2178C18.4237 22.9348 17.4295 23.9443 16.7431 25.1477C13.7696 30.1704 15.9875 37.5519 18.8359 41.6118C20.2609 43.5999 21.9265 45.8205 24.1057 45.7418C26.2383 45.6555 27.0348 44.4151 29.609 44.4151C32.1593 44.4151 32.9065 45.7418 35.13 45.6917C37.4184 45.6555 38.8601 43.6949 40.2352 41.688C41.2591 40.2715 42.047 38.7059 42.5697 37.0492C41.2403 36.5007 40.1058 35.5824 39.3076 34.4089C38.5095 33.2355 38.0831 31.8588 38.0815 30.4505Z" fill="white"/>
<path d="M33.8821 18.316C35.1298 16.8547 35.7445 14.9764 35.5957 13.0801C33.6894 13.2754 31.9286 14.1642 30.6641 15.5695C30.0458 16.256 29.5723 17.0546 29.2706 17.9198C28.9688 18.785 28.8448 19.6996 28.9057 20.6116C29.8591 20.6212 30.8024 20.4195 31.6644 20.0219C32.5264 19.6243 33.2847 19.041 33.8821 18.316Z" fill="white"/>
<path d="M70.9526 45.7442V32.0347H70.8595L65.1045 45.6021H62.9079L57.1379 32.0347H57.0462V45.7442H54.3467V27.1172H57.7745L63.9529 41.8198H64.058L70.2244 27.1172H73.6642V45.7442L70.9526 45.7442Z" fill="white"/>
<path d="M75.9443 41.8848C75.9443 39.5103 77.8091 38.0762 81.1183 37.8828L84.9289 37.6763V36.6436C84.9289 35.1333 83.9095 34.2808 82.1753 34.2808C81.533 34.1974 80.8816 34.3456 80.3434 34.6976C79.8052 35.0496 79.4171 35.5811 79.252 36.1924H76.5795C76.659 33.7388 79.0013 31.9971 82.2549 31.9971C85.5761 31.9971 87.7727 33.7651 87.7727 36.4371V45.7447H85.0341V43.5108H84.968C84.5294 44.2683 83.8902 44.8969 83.1174 45.3308C82.3445 45.7648 81.4664 45.9881 80.5748 45.9776C79.9892 46.0335 79.3981 45.9693 78.8394 45.7891C78.2808 45.6089 77.7669 45.3167 77.3309 44.9313C76.8948 44.5459 76.5462 44.0758 76.3074 43.5511C76.0686 43.0265 75.945 42.4589 75.9443 41.8848ZM84.9289 40.6588V39.6129L81.5012 39.8194C79.794 39.9234 78.8286 40.6456 78.8286 41.8072C78.8286 42.9952 79.8346 43.7701 81.369 43.7701C81.8134 43.7995 82.2594 43.7418 82.6806 43.6004C83.1018 43.459 83.4897 43.2368 83.8215 42.9468C84.1533 42.6569 84.4222 42.305 84.6124 41.9121C84.8026 41.5191 84.9102 41.093 84.9289 40.6588Z" fill="white"/>
<path d="M99.7712 36.8369C99.6462 36.094 99.2395 35.4242 98.6317 34.9604C98.024 34.4966 97.2596 34.2728 96.4905 34.3335C94.2939 34.3335 92.839 36.1279 92.839 38.9551C92.839 41.8467 94.3074 43.5884 96.516 43.5884C97.2749 43.6625 98.0342 43.4515 98.639 42.9983C99.2439 42.545 99.6488 41.8838 99.7712 41.1494H102.523C102.352 42.5537 101.626 43.8374 100.499 44.7271C99.3722 45.6168 97.934 46.0424 96.4905 45.9131C92.5208 45.9131 89.9277 43.2661 89.9277 38.9551C89.9277 34.7334 92.5207 31.9971 96.4635 31.9971C97.9176 31.8768 99.3623 32.3155 100.49 33.2196C101.617 34.1238 102.338 35.4218 102.498 36.8369H99.7712Z" fill="white"/>
<path d="M121.09 40.7095H113.813L112.065 45.7442H108.982L115.876 27.1172H119.078L125.971 45.7442H122.836L121.09 40.7095ZM114.566 38.3863H120.335L117.491 30.2154H117.412L114.566 38.3863Z" fill="white"/>
<path d="M140.858 38.9552C140.858 43.1754 138.543 45.8868 135.049 45.8868C134.164 45.932 133.284 45.7331 132.509 45.3128C131.735 44.8926 131.097 44.2681 130.669 43.5108H130.603V50.2374H127.746V32.1641H130.512V34.4229H130.564C131.012 33.6692 131.66 33.0479 132.44 32.6252C133.221 32.2024 134.104 31.994 134.997 32.022C138.529 32.0221 140.858 34.7467 140.858 38.9552ZM137.921 38.9552C137.921 36.2057 136.465 34.398 134.243 34.398C132.06 34.398 130.591 36.2437 130.591 38.9552C130.591 41.6915 132.06 43.524 134.243 43.524C136.465 43.524 137.921 41.7296 137.921 38.9552Z" fill="white"/>
<path d="M156.179 38.9552C156.179 43.1754 153.863 45.8868 150.369 45.8868C149.484 45.932 148.604 45.7331 147.83 45.3128C147.055 44.8926 146.417 44.2681 145.99 43.5108H145.924V50.2374H143.066V32.1641H145.832V34.4229H145.885C146.332 33.6692 146.98 33.0479 147.761 32.6252C148.541 32.2024 149.425 31.994 150.317 32.022C153.85 32.022 156.179 34.7466 156.179 38.9552ZM153.242 38.9552C153.242 36.2057 151.785 34.398 149.563 34.398C147.38 34.398 145.912 36.2437 145.912 38.9552C145.912 41.6915 147.38 43.524 149.563 43.524C151.785 43.524 153.242 41.7296 153.242 38.9552Z" fill="white"/>
<path d="M166.305 40.5543C166.516 42.4015 168.356 43.6143 170.869 43.6143C173.277 43.6143 175.01 42.4014 175.01 40.7359C175.01 39.29 173.965 38.4244 171.491 37.8311L169.016 37.2495C165.51 36.4234 163.883 34.8237 163.883 32.228C163.883 29.0142 166.754 26.8066 170.83 26.8066C174.864 26.8066 177.63 29.0142 177.723 32.228H174.839C174.666 30.3691 173.091 29.2471 170.789 29.2471C168.488 29.2471 166.913 30.3823 166.913 32.0347C166.913 33.3516 167.919 34.1265 170.38 34.7197L172.483 35.2236C176.4 36.1274 178.028 37.6626 178.028 40.3872C178.028 43.872 175.183 46.0546 170.657 46.0546C166.423 46.0546 163.565 43.9233 163.38 40.5541L166.305 40.5543Z" fill="white"/>
<path d="M184.194 28.9502V32.1641H186.841V34.3716H184.194V41.8584C184.194 43.0215 184.724 43.5635 185.887 43.5635C186.201 43.5581 186.515 43.5366 186.827 43.499V45.6933C186.304 45.7887 185.772 45.8319 185.24 45.8222C182.422 45.8222 181.323 44.7895 181.323 42.1557V34.3716H179.299V32.1641H181.323V28.9502H184.194Z" fill="white"/>
<path d="M188.372 38.9551C188.372 34.6821 190.952 31.9971 194.974 31.9971C199.01 31.9971 201.577 34.6821 201.577 38.9551C201.577 43.2398 199.023 45.9131 194.974 45.9131C190.926 45.9131 188.372 43.2397 188.372 38.9551ZM198.666 38.9551C198.666 36.0239 197.289 34.2939 194.974 34.2939C192.659 34.2939 191.282 36.0371 191.282 38.9551C191.282 41.8979 192.659 43.6148 194.974 43.6148C197.289 43.6148 198.666 41.8979 198.666 38.9551Z" fill="white"/>
<path d="M203.935 32.164H206.66V34.4755H206.726C206.91 33.7536 207.344 33.1156 207.953 32.6687C208.563 32.2219 209.312 31.9935 210.074 32.0219C210.403 32.0208 210.732 32.0557 211.053 32.1259V34.7333C210.637 34.6094 210.204 34.5525 209.769 34.5649C209.354 34.5484 208.94 34.6198 208.556 34.7742C208.172 34.9285 207.827 35.1621 207.544 35.4589C207.261 35.7558 207.047 36.1088 206.917 36.4938C206.788 36.8788 206.745 37.2867 206.792 37.6894V45.7446H203.935V32.164Z" fill="white"/>
<path d="M224.225 41.7559C223.841 44.2212 221.38 45.9131 218.232 45.9131C214.182 45.9131 211.669 43.2661 211.669 39.0195C211.669 34.7598 214.196 31.9971 218.112 31.9971C221.963 31.9971 224.385 34.5781 224.385 38.6958V39.6509H214.553V39.8193C214.508 40.3191 214.572 40.8226 214.741 41.2964C214.911 41.7702 215.182 42.2033 215.536 42.5672C215.89 42.931 216.319 43.2171 216.796 43.4066C217.272 43.596 217.784 43.6845 218.298 43.666C218.973 43.7277 219.651 43.5752 220.23 43.231C220.809 42.8868 221.259 42.3695 221.512 41.7558L224.225 41.7559ZM214.567 37.7026H221.526C221.552 37.2532 221.482 36.8035 221.321 36.3817C221.16 35.9599 220.911 35.5751 220.591 35.2514C220.27 34.9278 219.884 34.6723 219.458 34.501C219.031 34.3296 218.573 34.2462 218.112 34.2559C217.646 34.2532 217.185 34.3404 216.755 34.5125C216.324 34.6846 215.933 34.9382 215.603 35.2586C215.273 35.5791 215.012 35.9601 214.834 36.3795C214.657 36.799 214.566 37.2487 214.567 37.7026Z" fill="white"/>
<path d="M58.1564 13.0961C58.7555 13.0542 59.3565 13.1424 59.9164 13.3546C60.4762 13.5667 60.9807 13.8975 61.3937 14.3229C61.8066 14.7483 62.1176 15.2579 62.3043 15.8148C62.491 16.3717 62.5486 16.9621 62.4731 17.5434C62.4731 20.4027 60.8891 22.0464 58.1564 22.0464H54.8428V13.0961H58.1564ZM56.2676 20.7806H57.9973C58.4253 20.8056 58.8537 20.7371 59.2512 20.5802C59.6487 20.4232 60.0053 20.1818 60.2951 19.8735C60.5849 19.5651 60.8006 19.1976 60.9264 18.7977C61.0523 18.3978 61.0852 17.9755 61.0227 17.5616C61.0806 17.1493 61.0444 16.7297 60.9166 16.3327C60.7889 15.9357 60.5726 15.5712 60.2835 15.2653C59.9944 14.9594 59.6394 14.7197 59.2442 14.5633C58.8489 14.407 58.4231 14.3379 57.9973 14.3609H56.2676V20.7806Z" fill="white"/>
<path d="M64.0828 18.6667C64.0393 18.2228 64.0914 17.7749 64.2356 17.3518C64.3799 16.9287 64.6132 16.5397 64.9206 16.2098C65.228 15.8798 65.6027 15.6161 66.0207 15.4357C66.4387 15.2553 66.8907 15.1621 67.3477 15.1621C67.8047 15.1621 68.2567 15.2553 68.6747 15.4357C69.0927 15.6161 69.4674 15.8798 69.7748 16.2098C70.0822 16.5397 70.3155 16.9287 70.4598 17.3518C70.6041 17.7749 70.6561 18.2228 70.6126 18.6667C70.6569 19.111 70.6055 19.5595 70.4616 19.9833C70.3177 20.4071 70.0845 20.7968 69.777 21.1274C69.4696 21.458 69.0946 21.7222 68.6762 21.903C68.2578 22.0838 67.8053 22.1772 67.3477 22.1772C66.8901 22.1772 66.4376 22.0838 66.0192 21.903C65.6008 21.7222 65.2258 21.458 64.9184 21.1274C64.6109 20.7968 64.3777 20.4071 64.2338 19.9833C64.0899 19.5595 64.0385 19.111 64.0828 18.6667ZM69.2072 18.6667C69.2072 17.2026 68.5331 16.3464 67.35 16.3464C66.1623 16.3464 65.4942 17.2026 65.4942 18.6667C65.4942 20.1425 66.1624 20.9921 67.35 20.9921C68.5331 20.9921 69.2072 20.1366 69.2072 18.6667Z" fill="white"/>
<path d="M79.292 22.0464H77.8746L76.4438 17.0718H76.3357L74.9108 22.0464H73.507L71.5986 15.292H72.9845L74.2247 20.446H74.3268L75.7501 15.292H77.0609L78.4842 20.446H78.5923L79.8265 15.292H81.1928L79.292 22.0464Z" fill="white"/>
<path d="M82.7979 15.2923H84.1131V16.3653H84.2152C84.3884 15.9799 84.6805 15.6569 85.0509 15.4411C85.4212 15.2254 85.8513 15.1278 86.2812 15.1619C86.618 15.1372 86.9563 15.1868 87.2709 15.3069C87.5854 15.4271 87.8682 15.6147 88.0984 15.856C88.3285 16.0972 88.5001 16.3859 88.6003 16.7007C88.7005 17.0154 88.7269 17.3481 88.6775 17.6741V22.0466H87.3112V18.0089C87.3112 16.9234 86.8277 16.3836 85.8172 16.3836C85.5885 16.3732 85.3602 16.4112 85.148 16.4949C84.9357 16.5787 84.7445 16.7062 84.5875 16.8688C84.4305 17.0314 84.3114 17.2252 84.2383 17.4368C84.1652 17.6485 84.1399 17.8732 84.1642 18.0953V22.0467H82.7979L82.7979 15.2923Z" fill="white"/>
<path d="M90.8545 12.6553H92.2217V22.0464H90.8545V12.6553Z" fill="white"/>
<path d="M94.1199 18.6667C94.0764 18.2228 94.1285 17.7749 94.2727 17.3518C94.417 16.9287 94.6503 16.5397 94.9577 16.2098C95.2651 15.8798 95.6398 15.6161 96.0578 15.4357C96.4758 15.2553 96.9278 15.1621 97.3848 15.1621C97.8419 15.1621 98.2938 15.2553 98.7118 15.4357C99.1298 15.6161 99.5045 15.8798 99.8119 16.2098C100.119 16.5397 100.353 16.9287 100.497 17.3518C100.641 17.7749 100.693 18.2228 100.65 18.6667C100.694 19.111 100.643 19.5595 100.499 19.9833C100.355 20.4071 100.122 20.7968 99.8142 21.1274C99.5067 21.458 99.1317 21.7222 98.7133 21.903C98.2949 22.0838 97.8424 22.1772 97.3848 22.1772C96.9272 22.1772 96.4747 22.0838 96.0563 21.903C95.6379 21.7222 95.263 21.458 94.9555 21.1274C94.648 20.7968 94.4148 20.4071 94.2709 19.9833C94.127 19.5595 94.0756 19.111 94.1199 18.6667ZM99.2443 18.6667C99.2443 17.2026 98.5702 16.3464 97.3871 16.3464C96.1994 16.3464 95.5313 17.2026 95.5313 18.6667C95.5313 20.1425 96.1995 20.9921 97.3871 20.9921C98.5702 20.9921 99.2443 20.1366 99.2443 18.6667Z" fill="white"/>
<path d="M102.089 20.1367C102.089 18.9209 103.017 18.22 104.664 18.1203L106.539 18.0149V17.4319C106.539 16.7185 106.056 16.3157 105.122 16.3157C104.359 16.3157 103.831 16.5889 103.679 17.0664H102.356C102.496 15.9062 103.614 15.1621 105.185 15.1621C106.92 15.1621 107.899 16.0051 107.899 17.4319V22.0469H106.584V21.0977H106.476C106.257 21.4381 105.949 21.7157 105.583 21.902C105.218 22.0883 104.808 22.1767 104.397 22.1582C104.106 22.1876 103.812 22.1574 103.534 22.0693C103.256 21.9813 103 21.8374 102.783 21.647C102.566 21.4565 102.391 21.2237 102.272 20.9636C102.152 20.7035 102.09 20.4218 102.089 20.1367ZM106.539 19.5596V18.9949L104.848 19.1003C103.895 19.1626 103.463 19.479 103.463 20.0744C103.463 20.6823 104.003 21.0361 104.746 21.0361C104.964 21.0576 105.184 21.0362 105.393 20.973C105.602 20.9099 105.796 20.8064 105.964 20.6686C106.131 20.5308 106.268 20.3617 106.367 20.1711C106.466 19.9806 106.524 19.7726 106.539 19.5596Z" fill="white"/>
<path d="M109.694 18.6663C109.694 16.532 110.819 15.18 112.568 15.18C113.001 15.1605 113.43 15.2616 113.806 15.4715C114.182 15.6813 114.489 15.9912 114.691 16.365H114.793V12.6553H116.16V22.0464H114.85V20.9792H114.742C114.524 21.3505 114.207 21.6565 113.824 21.8643C113.44 22.072 113.006 22.1735 112.568 22.1577C110.807 22.1578 109.694 20.8057 109.694 18.6663ZM111.106 18.6663C111.106 20.0989 111.798 20.961 112.956 20.961C114.107 20.961 114.819 20.0865 114.819 18.6721C114.819 17.2644 114.1 16.3775 112.956 16.3775C111.805 16.3775 111.106 17.2454 111.106 18.6663Z" fill="white"/>
<path d="M121.813 18.6658C121.77 18.2219 121.822 17.774 121.966 17.3509C122.11 16.9278 122.344 16.5388 122.651 16.2088C122.959 15.8788 123.333 15.6152 123.751 15.4347C124.169 15.2543 124.621 15.1611 125.079 15.1611C125.536 15.1611 125.988 15.2543 126.406 15.4347C126.824 15.6152 127.198 15.8788 127.506 16.2088C127.813 16.5388 128.047 16.9278 128.191 17.3509C128.335 17.774 128.387 18.2219 128.344 18.6658C128.388 19.1102 128.337 19.5587 128.193 19.9824C128.049 20.4062 127.815 20.7959 127.508 21.1266C127.2 21.4572 126.825 21.7214 126.407 21.9022C125.989 22.0829 125.536 22.1763 125.079 22.1763C124.621 22.1763 124.168 22.0829 123.75 21.9022C123.332 21.7214 122.957 21.4572 122.649 21.1266C122.342 20.7959 122.108 20.4062 121.964 19.9824C121.82 19.5587 121.769 19.1102 121.813 18.6658ZM126.938 18.6658C126.938 17.2017 126.263 16.3455 125.08 16.3455C123.893 16.3455 123.225 17.2017 123.225 18.6658C123.225 20.1417 123.893 20.9913 125.08 20.9913C126.263 20.9913 126.938 20.1358 126.938 18.6658Z" fill="white"/>
<path d="M130.177 15.2923H131.492V16.3653H131.594C131.767 15.9799 132.059 15.6569 132.43 15.4411C132.8 15.2254 133.23 15.1278 133.66 15.1619C133.997 15.1372 134.335 15.1868 134.65 15.3069C134.964 15.4271 135.247 15.6147 135.477 15.856C135.707 16.0972 135.879 16.3859 135.979 16.7007C136.079 17.0154 136.106 17.3481 136.056 17.6741V22.0466H134.69V18.0089C134.69 16.9234 134.207 16.3836 133.196 16.3836C132.967 16.3732 132.739 16.4112 132.527 16.4949C132.315 16.5787 132.123 16.7062 131.966 16.8688C131.809 17.0314 131.69 17.2252 131.617 17.4368C131.544 17.6485 131.519 17.8732 131.543 18.0953V22.0467H130.177V15.2923Z" fill="white"/>
<path d="M143.776 13.6104V15.3228H145.276V16.4456H143.776V19.9187C143.776 20.6262 144.075 20.936 144.755 20.936C144.929 20.9355 145.103 20.9252 145.276 20.9053V22.0156C145.031 22.0584 144.782 22.0812 144.533 22.0837C143.014 22.0837 142.409 21.5622 142.409 20.26V16.4455H141.31V15.3227H142.409V13.6104H143.776Z" fill="white"/>
<path d="M147.143 12.6553H148.497V16.3774H148.605C148.787 15.9885 149.087 15.6636 149.464 15.4471C149.842 15.2305 150.279 15.1329 150.716 15.1675C151.051 15.1497 151.386 15.2043 151.697 15.3273C152.008 15.4504 152.287 15.6389 152.515 15.8794C152.743 16.1199 152.913 16.4065 153.014 16.7187C153.116 17.0309 153.145 17.361 153.1 17.6856V22.0464H151.733V18.0144C151.733 16.9355 151.217 16.3891 150.252 16.3891C150.017 16.3704 149.781 16.4019 149.56 16.4814C149.339 16.561 149.138 16.6868 148.972 16.8499C148.806 17.013 148.679 17.2095 148.599 17.4257C148.519 17.6419 148.488 17.8726 148.509 18.1015V22.0464H147.143L147.143 12.6553Z" fill="white"/>
<path d="M161.067 20.2223C160.882 20.8396 160.479 21.3736 159.931 21.7308C159.383 22.088 158.723 22.2457 158.067 22.1764C157.611 22.1881 157.158 22.1029 156.739 21.9266C156.32 21.7503 155.945 21.4872 155.641 21.1555C155.337 20.8238 155.11 20.4314 154.977 20.0057C154.844 19.58 154.807 19.131 154.869 18.6901C154.809 18.2477 154.846 17.7978 154.979 17.3708C155.112 16.9438 155.337 16.5497 155.64 16.2151C155.943 15.8804 156.316 15.6132 156.733 15.4314C157.151 15.2496 157.604 15.1574 158.061 15.1612C159.988 15.1612 161.15 16.4452 161.15 18.5662V19.0314H156.261V19.1061C156.24 19.3539 156.272 19.6034 156.355 19.8386C156.438 20.0737 156.571 20.2893 156.744 20.4714C156.918 20.6536 157.129 20.7984 157.363 20.8965C157.597 20.9946 157.85 21.0438 158.105 21.0411C158.432 21.0794 158.763 21.0219 159.056 20.8761C159.349 20.7303 159.592 20.5027 159.752 20.2222L161.067 20.2223ZM156.261 18.0455H159.758C159.775 17.8188 159.744 17.5911 159.665 17.3771C159.587 17.163 159.464 16.9673 159.303 16.8025C159.143 16.6377 158.949 16.5075 158.733 16.4202C158.518 16.3329 158.287 16.2906 158.054 16.2958C157.818 16.2929 157.583 16.3362 157.364 16.4231C157.145 16.51 156.946 16.6388 156.779 16.8019C156.612 16.9649 156.48 17.159 156.391 17.3726C156.302 17.5862 156.258 17.815 156.261 18.0455Z" fill="white"/>
</g>
<defs>
<clipPath id="clip0_2471_9867">
<rect width="240" height="60" fill="white"/>
</clipPath>
</defs>
</svg>
