<svg width="204" height="77" viewBox="0 0 204 77" fill="none" xmlns="http://www.w3.org/2000/svg">
<g filter="url(#filter0_d_2499_9559)">
<rect x="4" width="196" height="69" rx="10" fill="#1B1636"/>
</g>
<path d="M71.208 20.144C70.408 20.144 69.6827 20.0107 69.032 19.744C68.3813 19.4773 67.8213 19.088 67.352 18.576C66.8933 18.064 66.5413 17.456 66.296 16.752C66.0507 16.0373 65.928 15.2373 65.928 14.352C65.928 13.4667 66.0507 12.672 66.296 11.968C66.5413 11.2533 66.8933 10.6453 67.352 10.144C67.8107 9.632 68.3653 9.24267 69.016 8.976C69.6667 8.70933 70.3973 8.576 71.208 8.576C72.008 8.576 72.7333 8.70933 73.384 8.976C74.0347 9.24267 74.5893 9.62667 75.048 10.128C75.5173 10.6293 75.8747 11.2373 76.12 11.952C76.3653 12.656 76.488 13.4507 76.488 14.336C76.488 15.2213 76.3653 16.0213 76.12 16.736C75.8747 17.4507 75.5173 18.064 75.048 18.576C74.5893 19.088 74.0347 19.4773 73.384 19.744C72.7333 20.0107 72.008 20.144 71.208 20.144ZM71.208 18.704C71.9547 18.704 72.5893 18.5333 73.112 18.192C73.6453 17.8507 74.0507 17.3547 74.328 16.704C74.616 16.0533 74.76 15.2693 74.76 14.352C74.76 13.4347 74.6213 12.6507 74.344 12C74.0667 11.3493 73.6613 10.8587 73.128 10.528C72.6053 10.1867 71.9653 10.016 71.208 10.016C70.4613 10.016 69.8213 10.1867 69.288 10.528C68.7653 10.8587 68.36 11.3493 68.072 12C67.7947 12.6507 67.656 13.4347 67.656 14.352C67.656 15.2587 67.7947 16.0427 68.072 16.704C68.36 17.3547 68.7653 17.8507 69.288 18.192C69.8213 18.5333 70.4613 18.704 71.208 18.704ZM78.5423 22.88V12.192H80.1263V13.952H79.9503C80.1209 13.376 80.4569 12.9173 80.9583 12.576C81.4596 12.224 82.0516 12.048 82.7343 12.048C83.4276 12.048 84.0303 12.2133 84.5423 12.544C85.0649 12.8747 85.4649 13.3387 85.7423 13.936C86.0303 14.5333 86.1743 15.2533 86.1743 16.096C86.1743 16.9173 86.0303 17.6373 85.7423 18.256C85.4649 18.864 85.0703 19.3333 84.5583 19.664C84.0463 19.984 83.4383 20.144 82.7343 20.144C82.0623 20.144 81.4756 19.9733 80.9743 19.632C80.4729 19.2907 80.1369 18.8373 79.9663 18.272H80.1583V22.88H78.5423ZM82.3343 18.896C83.0063 18.896 83.5396 18.656 83.9343 18.176C84.3396 17.696 84.5423 17.0027 84.5423 16.096C84.5423 15.1787 84.3396 14.4853 83.9343 14.016C83.5396 13.5467 83.0063 13.312 82.3343 13.312C81.6729 13.312 81.1396 13.5467 80.7343 14.016C80.3289 14.4853 80.1263 15.1787 80.1263 16.096C80.1263 17.0027 80.3289 17.696 80.7343 18.176C81.1396 18.656 81.6729 18.896 82.3343 18.896ZM91.6594 20.144C90.806 20.144 90.07 19.984 89.4514 19.664C88.8434 19.3333 88.3687 18.8693 88.0274 18.272C87.6967 17.664 87.5314 16.944 87.5314 16.112C87.5314 15.3013 87.6967 14.592 88.0274 13.984C88.358 13.376 88.8114 12.9013 89.3874 12.56C89.9634 12.2187 90.6194 12.048 91.3554 12.048C92.0807 12.048 92.6994 12.208 93.2114 12.528C93.734 12.8373 94.134 13.28 94.4114 13.856C94.6887 14.432 94.8274 15.12 94.8274 15.92V16.464H88.8114V15.472H93.7394L93.4674 15.696C93.4674 14.896 93.2914 14.2773 92.9394 13.84C92.5874 13.4027 92.0807 13.184 91.4194 13.184C90.918 13.184 90.4914 13.3013 90.1394 13.536C89.798 13.7707 89.5367 14.096 89.3554 14.512C89.174 14.928 89.0834 15.4133 89.0834 15.968V16.064C89.0834 16.6827 89.1794 17.2053 89.3714 17.632C89.574 18.048 89.8674 18.3627 90.2514 18.576C90.6354 18.7893 91.11 18.896 91.6754 18.896C92.1234 18.896 92.5607 18.8267 92.9874 18.688C93.4247 18.5387 93.8354 18.3093 94.2194 18L94.6994 19.12C94.3474 19.44 93.894 19.6907 93.3394 19.872C92.7847 20.0533 92.2247 20.144 91.6594 20.144ZM96.5891 20V12.192H98.1571V14.064H97.9971C98.1678 13.424 98.4718 12.9387 98.9091 12.608C99.3571 12.2773 99.9491 12.0853 100.685 12.032L101.213 12L101.325 13.376L100.349 13.472C99.6558 13.536 99.1278 13.7547 98.7651 14.128C98.4025 14.5013 98.2211 15.0133 98.2211 15.664V20H96.5891ZM104.976 20.144C104.432 20.144 103.941 20.0373 103.504 19.824C103.077 19.6107 102.741 19.3227 102.496 18.96C102.25 18.5973 102.128 18.1867 102.128 17.728C102.128 17.152 102.272 16.6987 102.56 16.368C102.858 16.0267 103.344 15.7867 104.016 15.648C104.698 15.4987 105.616 15.424 106.768 15.424H107.52V16.416H106.784C106.208 16.416 105.722 16.4373 105.328 16.48C104.933 16.5227 104.618 16.592 104.384 16.688C104.149 16.7733 103.978 16.896 103.872 17.056C103.776 17.216 103.728 17.408 103.728 17.632C103.728 18.0373 103.866 18.368 104.144 18.624C104.421 18.8693 104.805 18.992 105.296 18.992C105.69 18.992 106.037 18.9013 106.336 18.72C106.634 18.528 106.869 18.272 107.04 17.952C107.221 17.632 107.312 17.264 107.312 16.848V15.008C107.312 14.4 107.184 13.9627 106.928 13.696C106.672 13.4293 106.25 13.296 105.664 13.296C105.216 13.296 104.768 13.3653 104.32 13.504C103.872 13.632 103.413 13.84 102.944 14.128L102.448 12.992C102.725 12.8 103.045 12.6347 103.408 12.496C103.77 12.3573 104.149 12.2507 104.544 12.176C104.949 12.0907 105.338 12.048 105.712 12.048C106.426 12.048 107.013 12.16 107.472 12.384C107.941 12.608 108.288 12.9493 108.512 13.408C108.736 13.8667 108.848 14.4587 108.848 15.184V20H107.328V18.256H107.472C107.386 18.6507 107.226 18.992 106.992 19.28C106.768 19.5573 106.485 19.7707 106.144 19.92C105.802 20.0693 105.413 20.144 104.976 20.144Z" fill="#938FAA"/>
<path d="M72.264 57.288C71.176 57.288 70.1947 57.0747 69.32 56.648C68.4667 56.2213 67.7947 55.6453 67.304 54.92C66.8133 54.1947 66.568 53.3733 66.568 52.456C66.568 51.304 66.856 50.3973 67.432 49.736C68.0293 49.0533 69 48.5733 70.344 48.296C71.7093 47.9973 73.544 47.848 75.848 47.848H77.352V49.832H75.88C74.728 49.832 73.7573 49.8747 72.968 49.96C72.1787 50.0453 71.5493 50.184 71.08 50.376C70.6107 50.5467 70.2693 50.792 70.056 51.112C69.864 51.432 69.768 51.816 69.768 52.264C69.768 53.0747 70.0453 53.736 70.6 54.248C71.1547 54.7387 71.9227 54.984 72.904 54.984C73.6933 54.984 74.3867 54.8027 74.984 54.44C75.5813 54.056 76.0507 53.544 76.392 52.904C76.7547 52.264 76.936 51.528 76.936 50.696V47.016C76.936 45.8 76.68 44.9253 76.168 44.392C75.656 43.8587 74.8133 43.592 73.64 43.592C72.744 43.592 71.848 43.7307 70.952 44.008C70.056 44.264 69.1387 44.68 68.2 45.256L67.208 42.984C67.7627 42.6 68.4027 42.2693 69.128 41.992C69.8533 41.7147 70.6107 41.5013 71.4 41.352C72.2107 41.1813 72.9893 41.096 73.736 41.096C75.1653 41.096 76.3387 41.32 77.256 41.768C78.1947 42.216 78.888 42.8987 79.336 43.816C79.784 44.7333 80.008 45.9173 80.008 47.368V57H76.968V53.512H77.256C77.0853 54.3013 76.7653 54.984 76.296 55.56C75.848 56.1147 75.2827 56.5413 74.6 56.84C73.9173 57.1387 73.1387 57.288 72.264 57.288ZM90.4115 57.288C89.0462 57.288 87.8408 56.968 86.7955 56.328C85.7715 55.6667 84.9715 54.728 84.3955 53.512C83.8195 52.2747 83.5315 50.8347 83.5315 49.192C83.5315 47.5067 83.8195 46.0667 84.3955 44.872C84.9715 43.6773 85.7715 42.7493 86.7955 42.088C87.8408 41.4267 89.0462 41.096 90.4115 41.096C91.7768 41.096 92.9502 41.4373 93.9315 42.12C94.9342 42.7813 95.6062 43.6773 95.9475 44.808H95.5955V34.44H98.8275V57H95.6595V53.48H95.9795C95.6382 54.632 94.9662 55.56 93.9635 56.264C92.9822 56.9467 91.7982 57.288 90.4115 57.288ZM91.2435 54.792C92.5662 54.792 93.6328 54.312 94.4435 53.352C95.2542 52.392 95.6595 51.0053 95.6595 49.192C95.6595 47.3573 95.2542 45.9707 94.4435 45.032C93.6328 44.0933 92.5662 43.624 91.2435 43.624C89.8995 43.624 88.8222 44.0933 88.0115 45.032C87.2008 45.9707 86.7955 47.3573 86.7955 49.192C86.7955 51.0053 87.2008 52.392 88.0115 53.352C88.8222 54.312 89.8995 54.792 91.2435 54.792ZM109.318 57.288C107.952 57.288 106.747 56.968 105.702 56.328C104.678 55.6667 103.878 54.728 103.302 53.512C102.726 52.2747 102.438 50.8347 102.438 49.192C102.438 47.5067 102.726 46.0667 103.302 44.872C103.878 43.6773 104.678 42.7493 105.702 42.088C106.747 41.4267 107.952 41.096 109.318 41.096C110.683 41.096 111.856 41.4373 112.838 42.12C113.84 42.7813 114.512 43.6773 114.854 44.808H114.502V34.44H117.734V57H114.566V53.48H114.886C114.544 54.632 113.872 55.56 112.87 56.264C111.888 56.9467 110.704 57.288 109.318 57.288ZM110.15 54.792C111.472 54.792 112.539 54.312 113.35 53.352C114.16 52.392 114.566 51.0053 114.566 49.192C114.566 47.3573 114.16 45.9707 113.35 45.032C112.539 44.0933 111.472 43.624 110.15 43.624C108.806 43.624 107.728 44.0933 106.918 45.032C106.107 45.9707 105.702 47.3573 105.702 49.192C105.702 51.0053 106.107 52.392 106.918 53.352C107.728 54.312 108.806 54.792 110.15 54.792ZM129.056 57.288C127.477 57.288 126.112 56.9573 124.96 56.296C123.829 55.6347 122.944 54.696 122.304 53.48C121.664 52.264 121.344 50.8347 121.344 49.192C121.344 47.528 121.664 46.0987 122.304 44.904C122.944 43.688 123.829 42.7493 124.96 42.088C126.112 41.4267 127.477 41.096 129.056 41.096C130.613 41.096 131.957 41.4267 133.088 42.088C134.24 42.7493 135.136 43.688 135.776 44.904C136.416 46.12 136.736 47.5493 136.736 49.192C136.736 50.8347 136.416 52.264 135.776 53.48C135.136 54.696 134.24 55.6347 133.088 56.296C131.957 56.9573 130.613 57.288 129.056 57.288ZM129.024 54.792C130.368 54.792 131.445 54.312 132.256 53.352C133.067 52.392 133.472 51.0053 133.472 49.192C133.472 47.3573 133.067 45.9707 132.256 45.032C131.445 44.0933 130.368 43.624 129.024 43.624C127.701 43.624 126.635 44.0933 125.824 45.032C125.013 45.9707 124.608 47.3573 124.608 49.192C124.608 51.0053 125.013 52.392 125.824 53.352C126.635 54.312 127.701 54.792 129.024 54.792ZM140.366 57V41.384H143.502V44.712H143.15C143.619 43.5173 144.355 42.6213 145.358 42.024C146.36 41.4053 147.512 41.096 148.814 41.096C150.051 41.096 151.075 41.3307 151.886 41.8C152.718 42.248 153.336 42.9413 153.742 43.88C154.147 44.7973 154.35 45.96 154.35 47.368V57H151.118V47.56C151.118 46.664 151 45.9387 150.766 45.384C150.531 44.808 150.179 44.3813 149.71 44.104C149.24 43.8267 148.632 43.688 147.886 43.688C147.032 43.688 146.275 43.8693 145.614 44.232C144.974 44.5947 144.472 45.1173 144.11 45.8C143.768 46.4827 143.598 47.272 143.598 48.168V57H140.366ZM164.275 57.288C163.443 57.288 162.633 57.2133 161.843 57.064C161.054 56.9147 160.329 56.7013 159.667 56.424C159.006 56.1467 158.419 55.8053 157.907 55.4L158.835 53.224C159.369 53.5867 159.934 53.9067 160.531 54.184C161.129 54.44 161.747 54.632 162.387 54.76C163.049 54.888 163.689 54.952 164.307 54.952C165.438 54.952 166.291 54.7493 166.867 54.344C167.443 53.9387 167.731 53.3947 167.731 52.712C167.731 52.1573 167.539 51.7307 167.155 51.432C166.771 51.112 166.195 50.8667 165.427 50.696L162.387 50.088C161.065 49.8107 160.062 49.32 159.379 48.616C158.697 47.912 158.355 47.016 158.355 45.928C158.355 44.9467 158.622 44.0933 159.155 43.368C159.689 42.6427 160.435 42.088 161.395 41.704C162.355 41.2987 163.465 41.096 164.723 41.096C165.449 41.096 166.153 41.1707 166.835 41.32C167.518 41.4693 168.158 41.6827 168.755 41.96C169.374 42.2373 169.897 42.5893 170.323 43.016L169.395 45.192C168.99 44.8293 168.521 44.52 167.987 44.264C167.475 44.008 166.942 43.816 166.387 43.688C165.833 43.5387 165.278 43.464 164.723 43.464C163.593 43.464 162.739 43.6773 162.163 44.104C161.609 44.5093 161.331 45.064 161.331 45.768C161.331 46.3013 161.502 46.7387 161.843 47.08C162.185 47.4213 162.718 47.6667 163.443 47.816L166.483 48.424C167.87 48.7013 168.915 49.1707 169.619 49.832C170.345 50.4933 170.707 51.3893 170.707 52.52C170.707 53.5013 170.441 54.3547 169.907 55.08C169.374 55.8053 168.617 56.36 167.635 56.744C166.675 57.1067 165.555 57.288 164.275 57.288Z" fill="#EB6976"/>
<g clip-path="url(#clip0_2499_9559)">
<path d="M27.4219 46.2656C25.2031 43.6562 23.7812 39.7969 23.6875 35.4688V34.5312C23.7812 30.2031 25.2188 26.3438 27.4219 23.7344C30.2969 20.0156 34.5156 18.3438 39.2812 18.3438C42.2188 18.3438 44.9844 18.5469 47.3281 20.1094C43.8125 16.9375 39.1719 15.0156 34.0781 15H34C22.9531 15 14 23.9531 14 35C14 45.7188 22.4375 54.4844 33.0469 54.9844C33.3594 55 33.6875 55 34 55C39.125 55 43.7969 53.0781 47.3281 49.9062C44.9844 51.4688 42.375 51.5312 39.4375 51.5312C34.6875 51.5469 30.2812 50 27.4219 46.2656Z" fill="url(#paint0_linear_2499_9559)"/>
<path d="M27.4219 23.7344C29.25 21.5625 31.625 20.2656 34.2187 20.2656C40.0469 20.2656 44.7656 26.8594 44.7656 35.0156C44.7656 43.1719 40.0469 49.7656 34.2187 49.7656C31.625 49.7656 29.2656 48.4531 27.4219 46.2969C30.2969 50.0156 34.5625 52.3906 39.3125 52.3906C42.2344 52.3906 44.9844 51.5 47.3281 49.9375C51.4219 46.25 54 40.9219 54 35C54 29.0781 51.4219 23.75 47.3281 20.0937C44.9844 18.5312 42.25 17.6406 39.3125 17.6406C34.5469 17.6406 30.2812 20 27.4219 23.7344Z" fill="url(#paint1_linear_2499_9559)"/>
</g>
<defs>
<filter id="filter0_d_2499_9559" x="0" y="0" width="204" height="77" filterUnits="userSpaceOnUse" color-interpolation-filters="sRGB">
<feFlood flood-opacity="0" result="BackgroundImageFix"/>
<feColorMatrix in="SourceAlpha" type="matrix" values="0 0 0 0 0 0 0 0 0 0 0 0 0 0 0 0 0 0 127 0" result="hardAlpha"/>
<feOffset dy="4"/>
<feGaussianBlur stdDeviation="2"/>
<feComposite in2="hardAlpha" operator="out"/>
<feColorMatrix type="matrix" values="0 0 0 0 0 0 0 0 0 0 0 0 0 0 0 0 0 0 0.25 0"/>
<feBlend mode="normal" in2="BackgroundImageFix" result="effect1_dropShadow_2499_9559"/>
<feBlend mode="normal" in="SourceGraphic" in2="effect1_dropShadow_2499_9559" result="shape"/>
</filter>
<linearGradient id="paint0_linear_2499_9559" x1="1680.51" y1="80.2" x2="1680.51" y2="3956.8" gradientUnits="userSpaceOnUse">
<stop offset="0.3" stop-color="#FF1B2D"/>
<stop offset="0.4381" stop-color="#FA1A2C"/>
<stop offset="0.5939" stop-color="#ED1528"/>
<stop offset="0.7581" stop-color="#D60E21"/>
<stop offset="0.9272" stop-color="#B70519"/>
<stop offset="1" stop-color="#A70014"/>
</linearGradient>
<linearGradient id="paint1_linear_2499_9559" x1="1356.06" y1="47.2824" x2="1356.06" y2="3475.93" gradientUnits="userSpaceOnUse">
<stop stop-color="#9C0000"/>
<stop offset="0.7" stop-color="#FF4B4B"/>
</linearGradient>
<clipPath id="clip0_2499_9559">
<rect width="40" height="40" fill="white" transform="translate(14 15)"/>
</clipPath>
</defs>
</svg>
