<svg width="20" height="20" viewBox="0 0 20 20" fill="none" xmlns="http://www.w3.org/2000/svg">
<g clip-path="url(#clip0_2957_18048)">
<path d="M15.0003 11.4287C15.5686 11.4287 16.1136 11.6545 16.5155 12.0563C16.9174 12.4582 17.1431 13.0032 17.1431 13.5716V14.0823C17.1431 16.6373 14.136 18.5716 10.0003 18.5716C5.86457 18.5716 2.85742 16.738 2.85742 14.0823V13.5716C2.85742 13.0032 3.08319 12.4582 3.48505 12.0563C3.88691 11.6545 4.43196 11.4287 5.00028 11.4287H15.0003Z" fill="url(#paint0_linear_2957_18048)"/>
<path d="M15.0003 11.4287C15.5686 11.4287 16.1136 11.6545 16.5155 12.0563C16.9174 12.4582 17.1431 13.0032 17.1431 13.5716V14.0823C17.1431 16.6373 14.136 18.5716 10.0003 18.5716C5.86457 18.5716 2.85742 16.738 2.85742 14.0823V13.5716C2.85742 13.0032 3.08319 12.4582 3.48505 12.0563C3.88691 11.6545 4.43196 11.4287 5.00028 11.4287H15.0003Z" fill="url(#paint1_linear_2957_18048)"/>
<path d="M10.0006 1.42871C10.5634 1.42871 11.1207 1.53956 11.6406 1.75494C12.1606 1.97032 12.633 2.286 13.031 2.68397C13.429 3.08193 13.7447 3.55439 13.96 4.07435C14.1754 4.59432 14.2863 5.15162 14.2863 5.71442C14.2863 6.27723 14.1754 6.83453 13.96 7.3545C13.7447 7.87446 13.429 8.34692 13.031 8.74488C12.633 9.14285 12.1606 9.45853 11.6406 9.67391C11.1207 9.88928 10.5634 10.0001 10.0006 10.0001C8.86392 10.0001 7.77383 9.54861 6.9701 8.74488C6.16637 7.94115 5.71484 6.85107 5.71484 5.71442C5.71484 4.57778 6.16637 3.48769 6.9701 2.68397C7.77383 1.88024 8.86392 1.42871 10.0006 1.42871Z" fill="url(#paint2_linear_2957_18048)"/>
</g>
<defs>
<linearGradient id="paint0_linear_2957_18048" x1="6.25457" y1="12.378" x2="8.56242" y2="19.748" gradientUnits="userSpaceOnUse">
<stop stop-color="#9C6CFE"/>
<stop offset="1" stop-color="#7A41DC"/>
</linearGradient>
<linearGradient id="paint1_linear_2957_18048" x1="10.0003" y1="10.578" x2="13.2317" y2="22.653" gradientUnits="userSpaceOnUse">
<stop stop-color="#885EDB" stop-opacity="0"/>
<stop offset="1" stop-color="#E362F8"/>
</linearGradient>
<linearGradient id="paint2_linear_2957_18048" x1="7.75341" y1="2.568" x2="12.1213" y2="9.54371" gradientUnits="userSpaceOnUse">
<stop stop-color="#9C6CFE"/>
<stop offset="1" stop-color="#7A41DC"/>
</linearGradient>
<clipPath id="clip0_2957_18048">
<rect width="20" height="20" fill="white"/>
</clipPath>
</defs>
</svg>
